<svg xmlns="http://www.w3.org/2000/svg" xmlns:xlink="http://www.w3.org/1999/xlink" xmlns:sketch="http://www.bohemiancoding.com/sketch/ns" viewBox="0 0 30 30" version="1.1" x="0px" y="0px"><g stroke="none" stroke-width="1" fill-rule="evenodd" sketch:type="MSPage"><g sketch:type="MSArtboardGroup" transform="translate(-45.000000, -405.000000)"><path d="M60,420 C63.3137085,420 66,417.313708 66,414 C66,410.686292 63.3137085,408 60,408 C56.6862915,408 54,410.686292 54,414 C54,417.313708 56.6862915,420 60,420 Z M49,430.5 C49,430.776142 49.2238576,431 49.5,431 L70.5,431 C70.7761424,431 71,430.776142 71,430.5 L71,429.5 C71,425.455327 68.2958308,422 63,422 L57,422 C51.7041692,422 49,425.455327 49,429.5 L49,430.5 Z" sketch:type="MSShapeGroup"></path></g></g></svg>