<svg xmlns="http://www.w3.org/2000/svg" xmlns:xlink="http://www.w3.org/1999/xlink" version="1.1" x="0px" y="0px" viewBox="0 0 48 48" enable-background="new 0 0 48 48" xml:space="preserve"><g><g><g><path d="M39.2,47.5H8.8c-4.6,0-8.3-3.7-8.3-8.3V11.8c0-1.1,0.9-2,2-2h43.1c1.1,0,2,0.9,2,2v27.4C47.5,43.8,43.8,47.5,39.2,47.5z      M4.4,13.7v25.5c0,2.4,2,4.4,4.4,4.4h30.4c2.4,0,4.4-2,4.4-4.4V13.7H4.4z"></path></g><g><path d="M36.5,29.1h-5c-1.1,0-2-0.9-2-2s0.9-2,2-2h5c3.9,0,7.1-3.1,7.1-7v-4.6c0-1.1,0.9-2,2-2s2,0.9,2,2v4.6     C47.5,24.2,42.6,29.1,36.5,29.1z"></path></g><g><path d="M16.3,29.1h-4.8c-6.1,0-11-4.9-11-10.9v-4.6c0-1.1,0.9-2,2-2s2,0.9,2,2v4.6c0,3.9,3.2,7,7.1,7h4.8c1.1,0,2,0.9,2,2     S17.4,29.1,16.3,29.1z"></path></g></g><g><path d="M30.8,33H17.2c-1.1,0-2-0.9-2-2v-8c0-1.1,0.9-2,2-2h13.5c1.1,0,2,0.9,2,2v8C32.7,32.1,31.9,33,30.8,33z M19.2,29h9.6v-4.1    h-9.6V29z"></path></g><g><path d="M36.5,13.7h-25c-1.1,0-2-0.9-2-2V4.4c0-2.1,1.7-3.9,3.9-3.9h21.2c2.1,0,3.9,1.7,3.9,3.9v7.4    C38.5,12.9,37.6,13.7,36.5,13.7z M13.4,9.8h21.1V4.4l-21.2,0L13.4,9.8z"></path></g></g></svg>