<?xml version="1.0" encoding="utf-8"?>
<!-- Generator: Adobe Illustrator 19.2.1, SVG Export Plug-In . SVG Version: 6.00 Build 0)  -->
<svg version="1.1" id="Lager_1" xmlns="http://www.w3.org/2000/svg" xmlns:xlink="http://www.w3.org/1999/xlink" x="0px" y="0px"
	 viewBox="0 0 82.1 102.7" style="enable-background:new 0 0 82.1 102.7;" xml:space="preserve">
<g>
	<g>
		<path class="st0" d="M56.3,27.8c-0.8-8.1-7.6-14.4-15.9-14.4c-8.5,0-15.5,6.7-16,15.2c0,0.3,0,0.5,0,0.8v11.3h16h16V29.5
			C56.4,28.9,56.3,28.4,56.3,27.8z"/>
	</g>
	<g>
		<path class="st1" d="M19.1,29.5c0-11.8,9.5-21.3,21.3-21.3c11.8,0,21.3,9.5,21.3,21.3v11.3H67V29.5c0-14.7-12-26.7-26.7-26.7
			c-14.7,0-26.7,12-26.7,26.7v11.3h5.3V29.5z"/>
	</g>
	<g>
		<path class="st2" d="M40.4,8.1c-11.8,0-21.3,9.5-21.3,21.3v11.3h5.3V29.5c0-0.3,0-0.5,0-0.8c0.4-8.4,7.4-15.2,16-15.2
			c8.3,0,15.1,6.3,15.9,14.4c0.1,0.5,0.1,1.1,0.1,1.6v11.3h5.3V29.5C61.7,17.7,52.2,8.1,40.4,8.1z"/>
	</g>
	<g>
		<polygon class="st1" points="40.4,40.8 24.4,40.8 19.1,40.8 13.7,40.8 5.7,40.8 5.7,93.2 40.4,93.2 		"/>
	</g>
	<g>
		<polygon class="st1" points="67,40.8 61.7,40.8 56.4,40.8 40.4,40.8 40.4,93.2 75,93.2 75,40.8 		"/>
	</g>
	<g>
		<polygon class="st2" points="5.7,93.2 5.7,98.8 40.4,98.8 75,98.8 75,93.2 40.4,93.2 		"/>
	</g>
</g>
</svg>
