<?xml version="1.0" encoding="utf-8"?>
<!-- Generator: Adobe Illustrator 19.2.1, SVG Export Plug-In . SVG Version: 6.00 Build 0)  -->
<svg version="1.1" id="Lager_1" xmlns="http://www.w3.org/2000/svg" xmlns:xlink="http://www.w3.org/1999/xlink" x="0px" y="0px"
	 viewBox="0 0 64.9 85.4" style="enable-background:new 0 0 64.9 85.4;" xml:space="preserve">
<style type="text/css">
	.st0{fill:#FFFFFF;}
	.st1{fill:#030405;}
	.st2{fill:none;stroke:#030405;stroke-width:9.500000e-02;}
	.st3{clip-path:url(#SVGID_2_);fill:#FFFFFF;}
	.st4{clip-path:url(#SVGID_2_);fill:#030405;}
	.st5{fill:#D9DADB;}
</style>
<path class="st0" d="M8.1,81.6C8.1,80.6,8,79.3,8,78.2h0c-0.3,1-0.6,2.1-1,3.2l-1.2,3.6H4.6l-1.1-3.5c-0.3-1.1-0.6-2.2-0.8-3.2h0
	c0,1.1-0.1,2.4-0.1,3.5L2.3,85H0.9l0.6-8.3h2l1.1,3.3c0.3,1,0.6,2,0.8,2.9h0C5.6,82,5.8,81,6.2,80.1l1.2-3.3h2L9.8,85H8.3L8.1,81.6z
	"/>
<path class="st0" d="M14.8,82.9c0,0.1,0,0.2,0,0.3c-0.1,0.4-0.6,0.8-1.2,0.8c-0.5,0-0.9-0.3-0.9-0.9c0-0.9,1-1.1,2.1-1.1V82.9z
	 M16.3,81.4c0-1.3-0.6-2.5-2.5-2.5c-1,0-1.7,0.3-2.2,0.5l0.3,1c0.4-0.3,1-0.4,1.6-0.4c1.1,0,1.2,0.6,1.2,1v0.1
	c-2.2,0-3.6,0.8-3.6,2.3c0,0.9,0.7,1.8,1.9,1.8c0.8,0,1.4-0.3,1.8-0.8h0L15,85h1.4c-0.1-0.4-0.1-0.9-0.1-1.4V81.4z"/>
<rect x="18.2" y="76.3" class="st0" width="1.5" height="8.7"/>
<path class="st0" d="M21.7,80.8c0-0.7,0-1.3,0-1.8H23l0.1,0.9h0c0.3-0.5,0.8-1,1.9-1c0.8,0,1.4,0.4,1.7,1.1h0
	c0.2-0.3,0.5-0.6,0.7-0.8c0.3-0.2,0.7-0.3,1.2-0.3c1,0,2,0.7,2,2.6V85h-1.5v-3.3c0-1-0.3-1.6-1.1-1.6c-0.5,0-0.9,0.4-1.1,0.8
	c0,0.1-0.1,0.3-0.1,0.5V85h-1.5v-3.5c0-0.8-0.3-1.4-1-1.4c-0.6,0-1,0.4-1.1,0.9c-0.1,0.2-0.1,0.3-0.1,0.5V85h-1.5V80.8z"/>
<path class="st0" d="M35.1,84.1c-0.9,0-1.5-0.9-1.5-2c0-1,0.4-2,1.5-2c1.1,0,1.5,1.1,1.5,2C36.6,83.2,36,84.1,35.1,84.1L35.1,84.1z
	 M33.9,78.3c0.4,0,0.7-0.3,0.7-0.7c0-0.4-0.3-0.7-0.7-0.7c-0.4,0-0.8,0.3-0.8,0.7C33.2,77.9,33.5,78.3,33.9,78.3L33.9,78.3z
	 M36.3,78.3c0.4,0,0.7-0.3,0.7-0.7c0-0.4-0.3-0.7-0.7-0.7c-0.4,0-0.7,0.3-0.7,0.7C35.6,77.9,35.9,78.3,36.3,78.3L36.3,78.3z
	 M35.1,85.2c1.5,0,3.1-1,3.1-3.2c0-1.8-1.2-3.1-3-3.1c-1.8,0-3.1,1.2-3.1,3.2C32,84,33.4,85.2,35.1,85.2L35.1,85.2z"/>
<path class="st0" d="M42,83.6c0.3,0.2,1,0.4,1.5,0.4c0.7,0,1-0.3,1-0.7c0-0.4-0.2-0.6-1-0.9c-1.2-0.4-1.7-1-1.7-1.7
	c0-1,0.9-1.9,2.3-1.9c0.7,0,1.2,0.2,1.6,0.4l-0.3,1.1c-0.3-0.1-0.7-0.3-1.3-0.3c-0.5,0-0.8,0.3-0.8,0.6c0,0.4,0.3,0.6,1.1,0.8
	c1.1,0.4,1.6,0.9,1.6,1.8c0,1.1-0.9,1.9-2.4,1.9c-0.7,0-1.4-0.2-1.8-0.4L42,83.6z"/>
<path class="st0" d="M49.3,77.5V79h1.5v1.1h-1.5v2.6c0,0.7,0.2,1.1,0.8,1.1c0.3,0,0.4,0,0.6-0.1l0,1.1c-0.2,0.1-0.6,0.2-1.1,0.2
	c-0.6,0-1-0.2-1.3-0.5c-0.3-0.3-0.5-0.9-0.5-1.7v-2.8H47V79h0.9v-1.1L49.3,77.5z"/>
<path class="st0" d="M55.4,82.9c0,0.1,0,0.2,0,0.3c-0.1,0.4-0.6,0.8-1.2,0.8c-0.5,0-0.9-0.3-0.9-0.9c0-0.9,1-1.1,2.1-1.1V82.9z
	 M56.9,81.4c0-1.3-0.6-2.5-2.5-2.5c-1,0-1.7,0.3-2.2,0.5l0.3,1c0.4-0.3,1-0.4,1.6-0.4c1.1,0,1.2,0.6,1.2,1v0.1
	c-2.2,0-3.6,0.8-3.6,2.3c0,0.9,0.7,1.8,1.9,1.8c0.8,0,1.4-0.3,1.8-0.8h0l0.1,0.7H57c-0.1-0.4-0.1-0.9-0.1-1.4V81.4z"/>
<path class="st0" d="M62.6,82.4c0,0.2,0,0.3,0,0.4c-0.2,0.7-0.7,1.1-1.3,1.1c-1,0-1.5-0.8-1.5-1.9c0-1.1,0.5-2,1.5-2
	c0.7,0,1.2,0.5,1.3,1.1c0,0.1,0,0.3,0,0.4V82.4z M62.6,76.3v3.4h0c-0.3-0.4-0.9-0.8-1.7-0.8c-1.5,0-2.7,1.2-2.7,3.2
	c0,1.8,1.1,3.1,2.6,3.1c0.9,0,1.6-0.4,2-1.1h0l0.1,0.9h1.4c0-0.4-0.1-1.1-0.1-1.7v-7H62.6z"/>
<path class="st0" d="M64.3,72.1V19.5v0v0v0c0-0.3-0.3-0.5-0.6-0.5c-0.1,0-0.2,0-0.3,0.1h0L46.3,31.8v40.3h0c0,0,0,0,0,0
	c0,0.3,0.2,0.6,0.6,0.6h16.9C64.1,72.6,64.3,72.4,64.3,72.1L64.3,72.1z"/>
<path class="st0" d="M18.8,31.8L1.6,19.1C1.5,19,1.4,19,1.3,19c-0.3,0-0.6,0.2-0.6,0.5h0v0v0v0v52.5c0,0,0,0,0,0
	c0,0.3,0.3,0.6,0.6,0.6h16.9c0.3,0,0.6-0.2,0.6-0.6v0h0V31.8z"/>
<path class="st1" d="M25.8,67.2l-11.7-15l17.6-13.5l11.7,15c0.9,1.3,3.1,5.1,0,9c-3.3,4.1-2.9,5.3-2.9,5.3s-0.8-0.7-5.9,1.4
	C29.8,71.6,26.8,68.4,25.8,67.2"/>
<path class="st0" d="M26,66.8L14.8,52.3l17-13L43,53.8c0.9,1.2,3.1,5.2,0,8.9c-3.3,3.9-2.8,4.9-2.8,4.9s-0.7-0.7-5.5,1.5
	C30.1,71.2,27,68,26,66.8"/>
<path class="st1" d="M36.6,38.3c0-0.6-0.5-1-1-1.1c-0.6-1.5-0.5-2.1-0.6-2.7c-0.1-1-0.1-2.7,0.1-4c0.2-1.3-0.8-3.5-2.4-4.4
	c-1.8-1.1-5.4-1-8.1,2.1c-0.4,0.5-2.3,2.8-3.8,4.8c-1.5,2-1.4,3.3-0.6,3.6c0,0,2.3,0.3,3.2,0.4c1.1,0.1,2,0.1,3,0.4
	c0.7,0.2,1.3,1.3,0.9,2.1c-1.5,1-2,2.6-0.9,3c1.8,0.7,4.3-2.3,5.7-3l0.4,0.4C35,40.4,36.7,39.8,36.6,38.3"/>
<path class="st2" d="M20.2,36.4c0,0,1.4,0.3,3.5-0.2c2-0.4,2.5-3.6,2.5-3.6c1.9-0.5,5.7-0.3,5.7-0.3s0.8-0.1,2,0.3"/>
<path class="st0" d="M27.5,39.8c0.5-1,0-2.6-1.3-2.8c-1.1-0.2-1.5-0.3-2.4-0.3c-0.9,0-1.6-0.1-1.6-0.1s1.1-0.1,2.6-0.5
	c1.6-0.4,4.4-1.6,6.3-2c2.9-0.6,3.5,0,3.5,0c0.1,1.4,0.4,2.7,0.5,3.1c0,0,0.2,0-0.9,0.1c-1.1,0.1-2.8,1.1-4.3,2.1
	c-1.1,0.8-2.7,1.9-3,1.7C26.9,40.8,27.3,40.2,27.5,39.8"/>
<path class="st0" d="M25.1,35.6c1.1-1.1,1.3-2.8,1.3-2.8c2.9-0.3,3.6-0.3,5.4-0.3c1.9,0,3,0.6,3,0.6l0,0.7c0,0-1.1-0.6-3.7,0
	c-1.8,0.4-2.7,0.8-4.3,1.3C25.8,35.4,25.1,35.6,25.1,35.6"/>
<path class="st2" d="M20.7,33.2c0,0-0.4,1.4,0.1,1.4c1.3,0.1,5.2-1.7,5.2-1.7l-0.4,1c0,0-3.6,1.7-5.2,1.4c-0.6-0.1-0.3-1.1-0.3-1.1
	S20.3,33.8,20.7,33.2z"/>
<path class="st0" d="M20.2,34.5c0,0-0.1,0.9,0.4,0.9c1.4,0,3.5-0.6,5.1-1.4c0,0-0.4,1.1-1.2,1.7c0,0-2.8,0.9-4,0.6
	C19.5,36,20.2,34.5,20.2,34.5"/>
<path class="st0" d="M21,33.4c0,0-0.6,1.2,0.3,1.2c1.1-0.1,3-0.6,4.9-1.6l0-0.5c0,0,1.8-0.3,4.6-0.2c2.8,0,3.5,0.4,3.8,0.5
	c0,0,0.1-0.9,0.2-1.9c0.1-1.1,0.2-1.9-1.1-3.5c-1.3-1.7-2.8-1.6-4-1.5c-1.4,0.1-2.9,0.7-4.2,2C24,29.2,21.7,32.3,21,33.4"/>
<path class="st1" d="M26.5,49.2c-0.3,0-0.9,0.5-0.3,0.9l-0.1,0.5c0,0-0.4,0.1-0.4,0.4c-0.1,0.4,0.1,0.5,0.1,0.5s0.4,0.1,0.4,0.1
	c0.1,0,1.2,0.1,3.4,0.8c2.2,0.7,3.3,1.3,3.5,1.3l0.3,0.1c0,0,0.9-0.2,1.3-0.1c0.4,0,1.1,0,1.1,0l-0.1-0.3c0.3-0.1,0.6-0.4,0.3-0.7
	c0,0-1.5-0.9-4.1-2C29.3,49.6,27,49.3,26.5,49.2"/>
<path class="st0" d="M26.6,50.1c0,0,1.5,0.3,3.9,1.1c2.5,0.8,4.6,1.9,4.6,1.9l-0.3,0.5c0,0-1.9-1-4.4-1.8c-2.6-0.8-3.1-0.9-3.7-1
	L26.6,50.1z"/>
<path class="st1" d="M31.9,50.8c-0.3-0.4-0.4-0.7-0.4-0.7s-0.1,0.1-0.8,0.3c-0.7,0.2-1.3-0.1-1.7-0.4c0,0-0.3-0.3-0.4-0.4
	c-0.1-0.2-0.2-0.3-0.2-0.3c-0.3,0.3-0.6,0.4-0.9,0.5c-0.8,0.1-1.7-0.7-2.1-2c-0.3,0.2-0.8,0.2-1.1-0.1c0,0,0,0,0,0
	c-0.3-0.3-0.6-0.4-0.6-0.4l0,0c0,0,0.3-0.2,0.5-0.6l0,0c0-0.1,0.1-0.1,0.1-0.2c0.1-0.1,0.3-0.2,0.4-0.2c-0.1-0.3,0-0.6,0.2-0.8
	c0,0,0,0,0,0c0.3-0.3,0.4-0.6,0.4-0.6l0,0c0,0,0.2,0.3,0.6,0.5l0,0c0.1,0,0.1,0.1,0.2,0.1c0.2,0.1,0.2,0.3,0.3,0.5
	c0.3,0,0.5,0,0.8,0.2c0,0,0,0,0,0.1c0.3,0.3,0.6,0.4,0.6,0.4l0,0c0,0-0.3,0.2-0.5,0.6h0c0,0.1-0.1,0.1-0.1,0.2
	c-0.2,0.2-0.3,0.2-0.5,0.2c0.1,0.4,0.2,0.6,0.4,0.7c0.4,0.1,0.8-0.4,0.9-1.1v0c-0.1-0.2-0.1-0.6,0.1-0.8c0.2-0.3,0.7-0.3,1.1-0.1
	c0.3,0.2,0.4,0.8,0,1.1c-0.1,0.1,0,0,0,0c-0.1,0.8,0.2,1.5,0.8,1.6c0.4,0.1,0.7-0.1,1-0.4c-0.4,0-0.6-0.3-0.7-0.6c0,0,0,0,0-0.1
	c-0.2-0.4-0.4-0.7-0.4-0.7l0,0c0,0,0.4-0.1,0.8-0.4l0,0c0.1,0,0.1-0.1,0.2-0.1c0.2-0.1,0.4,0,0.6,0.1v0c0-0.4,0.3-0.6,0.6-0.7
	c0,0,0.1,0,0.1,0c0.4-0.1,0.7-0.4,0.7-0.4l0,0.1c0,0,0.1,0.3,0.4,0.7c0,0,0,0,0,0.1c0.2,0.3,0.2,0.7,0,0.9l0,0
	c0.2,0.1,0.4,0.2,0.5,0.3c0,0.1,0.1,0.2,0.1,0.2c0.2,0.5,0.5,0.8,0.5,0.8h0c0,0-0.4,0.1-0.8,0.3c0,0,0,0,0,0c-0.3,0.2-0.7,0.3-1,0
	c0,0.4,0.2,0.8,0.5,1c0.5,0.3,1.2-0.1,1.6-0.7c0-0.1-0.1-0.2-0.1-0.3c0-0.5,0.4-0.7,0.8-0.7c0.4,0,0.8,0.3,0.8,0.8
	c0,0.3-0.2,0.6-0.5,0.7c-0.2,0.6-0.4,1.2,0,1.4c0.2,0.1,0.4,0.1,0.8-0.2c-0.2-0.1-0.2-0.3-0.2-0.5c0-0.1,0-0.1,0-0.2v0
	c0.1-0.4,0-0.8,0-0.8l0,0c0,0,0.3,0.1,0.7,0.1c0,0,0,0,0,0c0.3,0,0.6,0.1,0.8,0.3c0.1-0.1,0.3-0.3,0.5-0.3c0.1,0,0.1,0,0.2,0l0,0
	c0.4,0.1,0.8,0,0.8,0l0,0c0,0-0.1,0.3,0,0.7c0,0,0,0.1,0,0.1c0,0.3-0.2,0.6-0.4,0.7c0.1,0.1,0.2,0.3,0.2,0.4c0,0.1,0,0.1,0,0.2
	c-0.1,0.4,0,0.8,0,0.8l0,0c0,0-0.3,0-0.7,0c0,0,0,0,0,0c-0.5,0.1-0.8-0.2-0.9-0.5c-1.2,0.8-2.2,0.9-2.9,0.2
	c-0.2-0.2-0.4-0.6-0.4-0.9c0,0-0.1,0.1-0.3,0.2c-0.2,0.1-0.5,0.1-0.5,0.1C32.9,51.5,32.3,51.3,31.9,50.8"/>
<path class="st0" d="M31.7,49.6c0.1,0.8,0.7,1.4,1.4,1.6c0.5,0.1,1.1,0,1.5-0.4v0c0,0.5,0.1,0.9,0.4,1.2c0.5,0.5,1.6,0.4,2.6-0.4
	c0,0,0,0,0,0l0,0c0,0,0.1,0,0.1,0c0.1,0,0.2,0.1,0.2,0.2c0,0.3,0.3,0.5,0.6,0.5c0,0,0,0,0,0c0.2,0,0.4,0,0.4,0l0,0c0,0,0-0.2,0-0.5
	v0c0,0,0-0.1,0-0.1c0-0.1-0.1-0.2-0.2-0.3l0,0c0,0-0.1-0.1-0.1-0.2c0-0.1,0.1-0.2,0.1-0.2c0.2-0.1,0.3-0.3,0.3-0.5c0,0,0,0,0,0
	c0-0.2,0.1-0.4,0.1-0.4l0,0c0,0-0.2,0-0.5,0h0c0,0-0.1,0-0.1,0c-0.2,0-0.4,0.1-0.4,0.3c0,0-0.1,0.1-0.2,0.1c-0.1,0-0.1,0-0.2-0.1
	c0,0,0,0,0-0.1c-0.1-0.2-0.3-0.3-0.5-0.2c0,0,0,0,0,0c-0.2,0-0.4,0-0.4,0l0,0c0,0,0,0.2,0,0.5v0c0,0,0,0.1,0,0.1
	c0,0.2,0.1,0.3,0.2,0.4c0.1,0,0.1,0.1,0.1,0.2c0,0.1,0,0.1-0.1,0.1c-0.4,0.4-1,0.6-1.3,0.3c-0.5-0.3-0.5-1.2,0-2c0,0,0,0,0,0
	c0.2,0,0.3-0.2,0.3-0.4c0-0.2-0.2-0.4-0.4-0.5c-0.3,0-0.5,0.2-0.5,0.4c0,0.1,0,0.1,0.1,0.2c0,0,0,0.1-0.1,0.1
	c-0.5,0.8-1.4,1.2-2.1,0.9c-0.5-0.3-0.7-0.8-0.6-1.4l0,0c0-0.1,0.1-0.1,0.2-0.1c0,0,0.1,0,0.1,0c0.2,0.2,0.6,0.2,0.8,0.1
	c0,0,0,0,0,0c0.3-0.1,0.5-0.2,0.5-0.2l0,0c0,0-0.2-0.2-0.3-0.5v0c0-0.1,0-0.1-0.1-0.1c-0.1-0.2-0.3-0.3-0.4-0.3l0,0
	c-0.1,0-0.2-0.1-0.2-0.2c0,0,0-0.1,0-0.1l0,0c0.1-0.2,0.1-0.5,0-0.7c0,0,0,0,0,0C33,46.3,33,46.1,33,46.1s-0.2,0.1-0.5,0.2
	c0,0,0,0-0.1,0c-0.3,0.1-0.5,0.3-0.5,0.5l0,0c0,0,0,0.1,0,0.1c-0.1,0.1-0.2,0.1-0.2,0l0,0c-0.2-0.1-0.4-0.1-0.5-0.1
	C31.1,47,31,47,31,47h0c-0.3,0.2-0.6,0.2-0.6,0.2l0,0c0,0,0.2,0.2,0.3,0.5c0,0,0,0,0,0.1c0.1,0.3,0.4,0.5,0.7,0.5c0,0,0.1,0,0.1,0
	c0.1,0.1,0.1,0.1,0,0.2l0,0c-0.3,0.5-0.8,0.8-1.4,0.7c-0.7-0.1-1.2-1-1-2c0-0.1,0-0.1,0-0.1c0.1,0,0.1-0.1,0.2-0.1
	c0.1-0.2,0.1-0.5-0.1-0.6c-0.2-0.2-0.5-0.1-0.6,0.1c-0.1,0.2-0.1,0.4,0,0.5c0,0,0,0,0,0c-0.1,0.9-0.7,1.6-1.3,1.5
	c-0.4-0.1-0.7-0.5-0.8-1.1c0-0.1,0-0.1,0-0.1c0-0.1,0.1-0.1,0.2-0.1c0.1,0,0.3-0.1,0.4-0.2c0,0,0.1-0.1,0.1-0.1l0,0
	c0.1-0.2,0.3-0.4,0.3-0.4l0,0c0,0-0.2-0.1-0.4-0.2c0,0,0,0,0,0c-0.1-0.1-0.4-0.2-0.5-0.1c0,0,0,0-0.1,0c-0.1,0-0.1,0-0.2,0
	c-0.1,0-0.1-0.1-0.1-0.2c0-0.2,0-0.4-0.1-0.5c0,0-0.1-0.1-0.1-0.1l0,0c-0.2-0.1-0.4-0.3-0.4-0.3l0,0c0,0-0.1,0.2-0.2,0.4
	c0,0,0,0,0,0c-0.2,0.2-0.2,0.4-0.1,0.6c0,0.1,0,0.2,0,0.2c0,0-0.1,0.1-0.1,0.1l0,0c-0.1,0-0.2,0.1-0.3,0.2c0,0-0.1,0.1-0.1,0.1l0,0
	c-0.1,0.2-0.3,0.4-0.3,0.4l0,0c0,0,0.2,0.1,0.4,0.2c0,0,0,0,0,0c0.2,0.2,0.5,0.2,0.7,0c0.1-0.1,0.2-0.1,0.2,0c0,0,0.1,0.1,0.1,0.1
	l0,0c0,0,0,0,0,0.1c0.3,1.2,1,2,1.7,1.9c0.4,0,0.8-0.3,1.1-0.7l0,0c0.1,0.5,0.4,1,0.9,1.2C30.2,50.3,31.1,50.1,31.7,49.6"/>
<path class="st1" d="M38.4,51.1c0,0.3-0.2,0.5-0.5,0.5c-0.3,0-0.5-0.2-0.5-0.5c0-0.3,0.2-0.5,0.5-0.5C38.2,50.6,38.4,50.8,38.4,51.1
	"/>
<path class="st0" d="M38.2,51.1c0,0.2-0.1,0.3-0.3,0.3c-0.2,0-0.3-0.1-0.3-0.3c0-0.2,0.1-0.3,0.3-0.3C38.1,50.8,38.2,50.9,38.2,51.1
	"/>
<path class="st1" d="M32.8,47.8c0,0.3-0.2,0.5-0.5,0.5s-0.5-0.2-0.5-0.5c0-0.3,0.2-0.5,0.5-0.5C32.6,47.4,32.8,47.6,32.8,47.8"/>
<path class="st0" d="M32.6,47.8c0,0.2-0.1,0.3-0.3,0.3c-0.2,0-0.3-0.1-0.3-0.3c0-0.2,0.1-0.3,0.3-0.3C32.5,47.6,32.6,47.7,32.6,47.8
	"/>
<path class="st1" d="M26.4,46.8c0,0.3-0.2,0.5-0.5,0.5c-0.3,0-0.5-0.2-0.5-0.5c0-0.3,0.2-0.5,0.5-0.5C26.2,46.3,26.4,46.5,26.4,46.8
	"/>
<path class="st0" d="M26.2,46.8c0,0.2-0.1,0.3-0.3,0.3c-0.2,0-0.3-0.1-0.3-0.3c0-0.2,0.1-0.3,0.3-0.3C26.1,46.5,26.2,46.6,26.2,46.8
	"/>
<path class="st1" d="M25.9,50.7c0.1,0.1,0.3,0.2,0.5,0.3c0.1,0.1,0.3,0,0.4,0c0.2-0.1,0.3-0.1,0.4-0.2c0.2-0.1,0.1-0.3,0-0.4
	c-0.2-0.2-0.3-0.3-0.4-0.4c-0.1-0.1-0.4-0.1-0.5-0.1c-0.2,0.1-0.3,0.1-0.4,0.2C25.8,50.3,25.8,50.6,25.9,50.7"/>
<path class="st0" d="M26.9,50.5c0,0.2-0.2,0.4-0.4,0.4c-0.2,0-0.4-0.2-0.4-0.4c0-0.2,0.2-0.4,0.4-0.4C26.8,50.1,26.9,50.3,26.9,50.5
	"/>
<path class="st1" d="M28,51.1c0.1,0.1,0.3,0.3,0.4,0.4c0.1,0.1,0.3,0,0.4,0c0.2-0.1,0.3-0.1,0.4-0.2c0.2-0.1,0.1-0.3,0-0.4
	c-0.2-0.2-0.3-0.3-0.4-0.4c-0.1-0.1-0.3-0.1-0.4-0.1c-0.2,0.1-0.3,0.1-0.5,0.2C27.8,50.7,27.8,50.9,28,51.1"/>
<path class="st0" d="M29,51c0,0.2-0.2,0.4-0.4,0.4c-0.2,0-0.4-0.2-0.4-0.4c0-0.2,0.2-0.4,0.4-0.4C28.8,50.6,29,50.8,29,51"/>
<path class="st1" d="M30.4,51.8c0.1,0.1,0.3,0.3,0.4,0.4c0.1,0.1,0.3,0,0.4,0c0.2-0.1,0.3-0.1,0.4-0.2c0.2-0.1,0.1-0.3,0-0.4
	c-0.2-0.2-0.3-0.3-0.4-0.4c-0.1-0.1-0.3-0.2-0.4-0.1c-0.2,0.1-0.3,0.1-0.5,0.2C30.2,51.5,30.2,51.7,30.4,51.8"/>
<path class="st0" d="M31.4,51.7c0,0.2-0.2,0.4-0.4,0.4c-0.2,0-0.4-0.2-0.4-0.4c0-0.2,0.2-0.4,0.4-0.4C31.2,51.3,31.4,51.5,31.4,51.7
	"/>
<path class="st1" d="M32.7,52.7c0.1,0.1,0.3,0.3,0.4,0.4c0.1,0.1,0.3,0,0.4,0c0.2-0.1,0.3-0.1,0.4-0.2c0.2-0.1,0.1-0.3,0-0.4
	c-0.2-0.2-0.3-0.3-0.4-0.4C33.4,52,33.2,52,33,52c-0.2,0.1-0.3,0.1-0.5,0.2C32.4,52.3,32.5,52.5,32.7,52.7"/>
<path class="st0" d="M33.6,52.6c0,0.2-0.2,0.4-0.4,0.4c-0.2,0-0.4-0.2-0.4-0.4c0-0.2,0.2-0.4,0.4-0.4C33.5,52.2,33.6,52.4,33.6,52.6
	"/>
<path class="st1" d="M36.1,53.8c0.1,0,0-0.3-0.1-0.4c-0.1-0.3-0.4-0.1-0.5-0.3c-0.1-0.1-0.3-0.2-0.4-0.1c-0.2,0.1-0.3,0.1-0.5,0.2
	c-0.1,0.1-0.1,0.3,0.1,0.4c0,0,0.1,0.1,0.1,0.1C34.8,53.8,36,53.8,36.1,53.8"/>
<path class="st0" d="M35.7,53.6c0-0.2-0.2-0.3-0.4-0.3c-0.2,0-0.4,0.1-0.4,0.3c0,0,0.1,0,0.4,0C35.5,53.6,35.7,53.6,35.7,53.6"/>
<path class="st0" d="M34,53.5c-0.8-0.4-2-0.9-3.4-1.3C28,51.3,26.5,51,26.4,51c-0.3,0-0.4,0.3-0.1,0.3c0.2,0.1,1.5,0.2,4.3,1.2
	c1.1,0.4,2,0.7,2.7,1c0,0,0.1,0,0.2,0C33.6,53.5,34,53.5,34,53.5"/>
<path class="st0" d="M26.5,49.9c0.2,0.1,1.5,0.2,4.3,1.2c2.7,0.9,4.5,1.8,4.6,1.9c0.2,0.2,0.4-0.1,0.1-0.3c-0.2-0.1-2-1-4.6-1.9
	c-2.6-0.9-4.1-1.2-4.3-1.2C26.3,49.5,26.2,49.8,26.5,49.9"/>
<path class="st0" d="M34.5,51.9c-0.1-0.2-0.2-0.4-0.2-0.6c0,0-0.1,0.1-0.3,0.2c-0.1,0-0.3,0.1-0.4,0.1l0,0
	C34,51.7,34.3,51.8,34.5,51.9L34.5,51.9z"/>
<path class="st0" d="M28.7,49.5c0.1,0.1,0.2,0.2,0.3,0.3l0,0c-0.4-0.1-0.7-0.2-1-0.3l0,0c0.2-0.1,0.4-0.2,0.6-0.4
	C28.5,49.2,28.6,49.4,28.7,49.5"/>
<path class="st0" d="M30.6,50.4C30.6,50.4,30.6,50.4,30.6,50.4C30.6,50.4,30.6,50.4,30.6,50.4L30.6,50.4z"/>
<path class="st0" d="M31.9,50.8L31.9,50.8c-0.3-0.4-0.4-0.8-0.4-0.8s-0.1,0.1-0.8,0.3c0,0,0,0,0,0c0,0-0.1,0-0.1,0
	c0.1,0,0.2,0.1,0.4,0.1C31.3,50.6,31.6,50.7,31.9,50.8"/>
<path class="st0" d="M27,40.1c-0.5,0.9-0.4,1.4,0,1.4c0.9,0,2.3-1.3,4.1-2.6c0.8-0.6,1.9-1,2.7-1.2c1.1-0.3,1.3-0.2,1.6,0
	c0.5,0.3,0.3,0.8,0.3,0.8s0.2-0.9-2.1-0.3c-1.7,0.5-2.6,1.6-4.4,2.9c-1.2,0.9-2.5,1.3-2.9,0.7C25.8,41.3,27,40.1,27,40.1"/>
<path class="st0" d="M32.3,39.3c0,0,0.1-0.1,0.4-0.3c0,0,1.1,0.2,1.7,0.1c1-0.2,1.5-0.7,1.3,0c-0.2,0.5-0.8,0.6-1.7,0.7
	c-1,0.1-1.6-0.1-1.6-0.1L32.3,39.3z"/>
<path class="st1" d="M44.1,46.5c0,0-0.4-0.3-0.4-0.3c-0.4,0-1.3-0.3-2-0.9c-0.5-0.5-1.5-1.7-1.5-1.7s0.4,1,1.1,1.8
	C42.5,46.6,44.1,46.5,44.1,46.5"/>
<path class="st1" d="M26,51.4c0,0,0.4,0.1,1.8,0.4c1.4,0.4,2.4,0.7,3.6,1.1c1.1,0.4,1.9,0.7,1.9,0.7c0.4-0.2,0.9,0,1.9,0
	c1.5,0,2.1,0.5,2.7,0.6c0.8,0,1.8-0.5,2.2-0.5c0.3,0-0.2,1.1-1.3,1.6c-0.5,0.2-0.9,0.5-2.3,0.9c-0.2,0,0.2,0,0,0
	c0.6,0.1,1.2,0.1,2.2,0.3c1.2,0.3,1.8,1.2,2.2,1.6c0.4,0.4,1.3-0.2,1.3-0.2c-0.1,1-0.4,1.5-1.1,1.9c-0.7,0.5-1.7,0.3-1.7,0.3
	c0.3,0.5,0.5,0.8,0.6,1.6c0.1,1-0.7,1.6-0.7,1.6c-0.2-1.1-1.2-1.4-1.2-1.4s0.6,1.1,0.5,2.2c-0.1,1.3-1.1,1.7-1.1,1.7s-0.3-1-0.9-1.6
	c-0.5-0.5-1.2-0.8-1.2-0.8c0,0.5,0,1-0.4,1.9c-0.5,1.3-1.8,1.5-1.8,1.5c0.1-0.7-0.2-1.4-0.7-2.1c-0.4-0.4-0.6-0.9-0.6-0.9
	c0.1,1.4-0.9,1.9-1.5,2.2c-0.5,0.2-0.9,0.3-0.9,0.3c0.2-0.7-0.2-1.4-0.5-2.1c-0.3-0.7-0.3-1.7-0.3-1.7s-0.5,0.2-0.8,0.7
	c-0.5,0.7,0,1.7,0,1.7s-1.4-0.5-1.9-1.3c-0.6-1.1-0.1-2.1-0.1-2.1s-0.1,0-0.4,0.4c-0.3,0.4-0.1,1.6-0.1,1.6s-1.1-0.9-1.2-1.9
	c-0.1-1,0.1-1.4,1.1-2.2c0.2-0.2,0.4-0.2,0.7-0.6c-0.1-0.1-0.8-0.4-1.5-0.6c-0.9-0.3-1.9-0.4-1.9-0.4c0.2-0.5,1.1-0.6,2.1-0.4
	c1.6,0.3,1.9,0.4,1.9,0.4c-0.4-0.5-1.1-1.2-3.1-1.6c-1.9-0.2-1.9,1.2-2.1,1.2c-0.1,0-0.6-0.9-0.8-1.8c-0.2-1,0.3-2,0.9-2.4
	c1.1-0.6,3.8-0.3,3.8-0.3S25,52.3,26,51.4"/>
<path class="st0" d="M26.1,51.6c0,0,0.7,0.1,1.8,0.4c1.3,0.3,2,0.6,3.2,1c1.2,0.4,1.8,0.7,1.8,0.7c-0.2,0.3-0.1,0.6-0.1,0.6
	s0.1-0.2,0.4-0.4c0.3-0.1,0.7-0.2,2-0.1c1,0.1,1.4,0.4,2.4,0.6c1,0.1,1.8-0.3,1.9-0.4c-0.3,0.6-1.5,1-2,1.3c-1,0.4-1.8,0.6-2.4,0.5
	c-0.6,0-1.2-0.2-1.2-0.2c0.1,0.1,0.7,0.4,1.5,0.6c0.8,0.2,2.5,0.2,3.4,0.5c0.9,0.3,1.4,1,1.8,1.4c0.4,0.4,1,0,1,0
	c-0.2,0.5-0.6,1.1-1.5,1.3c-0.8,0.2-1.6,0-1.6,0c0.5,0.5,0.9,1.2,1,1.9c0.1,0.7-0.2,1-0.2,1S39,62,38.6,61.7
	c-0.5-0.4-1.2-0.4-1.2-0.4c0.4,0.8,0.7,1.9,0.7,2.7c0,0.8-0.5,1-0.5,1c-0.2-0.5-0.5-0.9-1-1.4c-0.6-0.6-1.7-0.9-1.7-0.9
	c0.2,0.9,0,1.6-0.4,2.4c-0.4,0.8-1,1.1-1,1.1c0.1-0.8-0.5-1.4-1-2.1c-0.6-0.6-1-1.3-1-1.3s0,1.5-0.4,2c-0.5,0.7-1.3,0.9-1.3,0.9
	s0-0.2-0.1-0.7c-0.1-0.4-0.4-0.8-0.7-1.6c-0.2-0.8,0-1.6,0-1.6c-0.7,0.2-1.3,0.6-1.6,1.1c-0.4,0.7-0.2,1.3-0.2,1.3s-0.5-0.2-0.9-0.8
	c-0.4-0.5-0.4-1.1-0.2-1.9c0.1-0.7,0.2-1.1,0.2-1.1c-0.9,0.4-1.6,1.2-1.3,2.1c0,0-0.5-0.6-0.5-1.4c0-0.8,0.7-1.3,1.3-1.9
	c0.3-0.3,0.6-0.6,0.6-0.6c0.7,0.2,1.1,0.3,1.5,0.3c0.4,0,0.7,0.3,0.7,0.3s0-0.2,0-0.4c0-0.1-0.1-0.3-0.1-0.3c0,0-0.8,0.4-2.7-0.4
	c-1-0.4-2.3-0.6-2.3-0.6s0.8-0.2,1.8,0.1c1.4,0.5,2.3,0.4,2.3,0.4s-0.2-0.6-1-1.2c-0.9-0.7-1.7-1-2.8-1.1c-1.5-0.2-2.1,0.8-2.1,0.8
	s-0.3-0.5-0.4-1.2c-0.2-0.9,0.3-1.7,0.9-2c1-0.5,2.7-0.3,3.7-0.2c0,0,0,0,0,0c0,0.2,0,0.6,0.3,0.9c0.4,0.4,0.8,0.3,1.3,0.2
	c0.4-0.1,0.7-0.4,0.8-0.5c0.1,0,0.1,0,0.1,0c0.5,0.1,0.8,0.1,0.8,0.1s-0.3-0.1-0.9-0.4c-0.3-0.2-0.7-0.6-1.2-0.7
	c-0.7-0.2-0.7,0.1-1.1,0C25.5,52.6,25.7,52,26.1,51.6"/>
<path class="st1" d="M24.1,54c0,0-0.5-0.2-0.3-0.4c0.2-0.3,0.4-0.3,0.8-0.1c0.4,0.1,0.7,0.4,0.7,0.4s-0.7-0.4-1-0.2
	C24,53.8,24.1,54,24.1,54"/>
<path class="st0" d="M26.6,53.1c0.5,0.1,0.6,0.3,0.8,0.6c-0.3,0.3-0.8,0.4-1.1,0.3c0,0,0.3-0.1,0.4-0.3
	C26.8,53.5,26.8,53.3,26.6,53.1"/>
<path class="st1" d="M34.5,54.2c-1.2-0.3-1.2,0.4-1.2,0.4c0.1,0.1,0.8,0.2,0.8,0.2l-0.3-0.3c0,0,0.1-0.1,0.7,0l0.5,0.4l-0.1-0.3
	c0.7,0.1,1.7,0.3,2.1,0.3c0.5,0,0.7-0.2,0.7-0.2C37.1,54.8,35.7,54.5,34.5,54.2"/>
<path class="st1" d="M29.5,60.5c-0.2,0.5-1,1.1-0.9,1.9c0.1,0.8,0.4,1.4,0.4,1.4s-0.3-1,0-1.8c0.3-0.8,0.4-0.7,0.6-1.3
	c0.3-0.9,0-1.3,0-1.3S29.7,60,29.5,60.5"/>
<path class="st1" d="M33.7,61.6c0-0.2,0.1-0.4,0.1-0.4s0.1,0.6,0.7,1.1c0.6,0.6,1.4,0.9,1.4,0.9s-0.7,0.2-1.3-0.3
	C34,62.4,33.8,61.9,33.7,61.6"/>
<path class="st1" d="M39,60.2c0,0-0.2-0.4-0.7-0.9c-0.5-0.5-1.2-0.8-1.2-0.8s0.8,0.2,1.3,0.6c0.5,0.4,0.7,0.7,0.7,0.7L39,60.2z"/>
<path class="st1" d="M55.2,51.5c-0.3,0.4-0.1,0.8,0.4,0.8c0.6,0,0.9-1.1,0.9-1.1c0.4,0.3,0.7,0.9,0.5,1.6c-0.4,1.5-2.1,1.6-3,0.9
	c-0.8-0.6-0.8-1.3-0.8-1.3l-0.8,0.5c0,0,0.6,0.3,0.7,1c0.1,1.5-1.9,2-2.8,0.8c-1.3-1.7,0.9-3.3,0.9-3.3c-1.5-0.7-1-2.5,0.1-2.9
	c1.3-0.4,1.9,0.4,1.9,0.4c-0.1,0-1,0.1-1,0.6c0,0.7,1,0.9,2,0.2c1.4-0.9,1.5-2.5,1.5-2.5s-0.5-1.1-2-1.8c-1.6-0.7-2.8-0.1-2.8-0.1
	c1.1,0.4,0.9,1.6,0.9,1.6s-1.3,0.5-2.5,0c-1.1-0.5-1.7-0.3-1.7-0.3c1,0.6,1.5,2.1,0.2,3.2c0,0-0.8-0.9-1.2-1.3
	c-1.7-1.8-3.1-1.1-4.5-1.6c-1.2-0.4-1.9-1.1-1.9-1.1s0,0.2,0,0.7c0,0.5-0.1,0.9-0.1,0.9s-0.7-0.2-1.2-0.5c-0.5-0.4-0.8-1.1-0.9-1.8
	c0-0.5,0-0.8,0-1.3c0,0-0.2,0.3-0.7,0.4c-0.5,0.1-1.1,0-1.1,0c0.2-1.3,0.3-2.8-0.2-4.3c-0.4-1.4-1.3-3-1.3-3l0.4,0.2
	c0,0,0.3-0.6,0.2-0.8c0,0,0.2,0.6,1.1,0.9c0.9,0.3,0.9,0.3,1.3-0.1c0,0,1,0.9,1.5,1.6c0.4,0.7,1.2,1.1,2.1,1.3
	c0.6,0.2,1.5,0.1,1.5,0.1c0.4,1.8-1.2,1.8-1.2,1.8s0.5,0.4,1.6,0.6c0.7,0.1,1.4,0.1,1.4,0.1s0.2,1.1-0.9,1.6
	c-0.7,0.3-1.2,0.2-1.2,0.2s0.5,0.7,0.7,0.7c0.4,0.1,1.3,0,1.9-0.3c2-0.7,1.8-2,1.9-2.7c0.2-0.7,0.6-1.5,0.6-1.5s0.7,0.3,1,1
	c0.3,0.7,0.1,1.3,0.1,1.3s0.2-0.3,0.5-0.7c0.9-1.2,2.6-0.6,2.6-0.6c-0.1,1.1-0.6,1.3-0.6,1.3s0.8-0.4,2.6,0c2.7,0.7,3.8,2.8,3.6,4.9
	C57.1,50.3,55.9,50.5,55.2,51.5 M52,53.1c-0.3,0.2-0.4,0.2-0.5,0.4c0,0.3,0.3,0.4,0.5,0.2C52.2,53.5,52,53.1,52,53.1"/>
<path class="st1" d="M46.7,37.5c0,0,1.1,0.1,1.3,1.4c0.2,1.1-0.8,2.1-2.3,2c-1.3-0.1-2-1.2-2.2-2.2c-0.2-1.5,0.5-2.4,1.1-3.1
	c0,0-0.6-0.1-1.2-0.7c-0.6-0.7-0.8-2.1-0.8-2.1s0.7-0.1,1.4,0c0.7,0.2,1.1,0.3,1.8,0.1c0.7-0.2,0.9-0.5,0.9-0.5s-1.4,0.7-2.1-0.5
	c-0.7-1.1,0.1-2.3,0.2-2.5c0,0,0.3,0,1.4,0.9c0.5,0.4,0.8,0.1,0.8,0c-0.2-1.1-1.7-2.1-3.6-1.4c-1.7,0.6-2.3,2.3-2.3,2.3l-0.8,0.6
	c0.3-1.5,0-2.4,0-2.4c1.7-3.3,3.4-2.6,4.6-3.4c1.5-1,2.5-0.7,2.5-0.7s0.3,1.2-0.4,1.7c0,0,0.5,0,1.5,0.1c1,0.2,1.3,0.5,2.1,0.8
	c1.4,0.6,2.5,0.5,3.1,0.5c0,0-0.3,2.1-2.1,1.7c0,0,0.3,0.5,0.3,1.6c0,0.8-0.3,1.4-0.3,1.4s0.2,0.6,0.9,0.3c0.5-0.2,0.8-0.7,0.8-0.7
	c0.5,1.6,0,3-1.4,3.2c-1.3,0.2-1.8-0.8-1.8-0.8s-0.9,1.2-2.3,1.6c-1.5,0.4-2.4,1-2.1,1.8c0.2,0.6,1.3,0.7,1.3-0.1
	C46.9,38,46.7,37.5,46.7,37.5"/>
<path class="st1" d="M27.2,33.3c0,0-1.5-1.5-2.4-2.2c-1.6-1.2-1.8,0.3-1.6,1c0,0-1.8-1-1.1-2.4c0.4-0.7,1.6-0.9,2.5-0.1c0,0,0,0,0,0
	c0,0-0.3-0.6,0.4-1.4c0,0,0.7,0.2,1.2,1.4c0.3,0.7,0.4,1.3,0.4,1.3c0.2,0.2,0.5,0.4,0.5,0.4s-0.1-0.5,0.3-0.9c0.7-0.6,1.6,0,1.6,0.1
	c0,0-0.9,0.7-0.4,1.6c0.5,1,1.3,1.4,2.3,1.5c2.5,0.4,3.7-4.8,2-8.1c-1.5-2.9-3.4-0.8-3.4-0.8l-1.2-0.1c0,0,0-1.3,2-1.4
	c2.3-0.2,4,1.7,4.7,3.7c0.6,1.8,0.3,4.7-0.9,6.5C32.8,35.3,30.6,36.1,27.2,33.3"/>
<path class="st0" d="M35.2,37.1c0,0,0.4,1,0.7,1.6c1,2.3,0.9,4.3,0.7,5.4c0,0,1.1,0.1,1.4-0.7c0.2-0.6-0.1-1.5,0.1-1.2
	c0.5,1,0.2,2,0.3,3.2c0.2,1.4,1.4,1.6,1.4,1.6s0.2-0.8,0-2c0-0.1,0.9,1,2.2,1.6c1,0.5,2.4,0.1,4,1c0,0-0.6-0.4-1.8-1.1
	c-1.2-0.7-2.1-2.1-2.6-2.5c0,0,0.8,0.2,1.4,0.1c1.2-0.2,1.2-1,1.2-1s-0.8,0-1.4-0.1c-0.5-0.1-1.4-0.4-1.8-1.2c0,0,0.4,0,0.8-0.2
	c0.8-0.2,0.8-1,0.8-1s-0.3,0.2-1.3,0c-0.8-0.2-1.8-0.7-2.3-1.5c-0.6-1-1.3-1.4-1.5-1.6c0,0-0.9,0-1.4-0.4c-0.5-0.4-0.8-0.8-0.8-0.8
	S35.3,37,35.2,37.1"/>
<path class="st0" d="M47.3,36.5c0,0,0.5-0.2,1-0.4c1-0.6,1.8-1.6,1.8-1.6c0.1,0.1,0.1,0.9,1.2,1.1c1.2,0.2,1.9-0.9,1.7-2.1
	c0,0-0.4,0.5-1.1,0.4c-0.6-0.1-0.8-0.7-0.8-0.7s0.3-0.5,0.3-1.4c0-0.7-0.1-1.2-0.3-1.5c-0.2-0.4-0.4-0.7-0.6-1c-0.2-0.2,0.1,0,0.1,0
	c0.3,0.3,0.6,0.4,0.6,0.4c1.5,0.6,1.9-0.9,1.9-0.9c-0.3,0-0.9,0-1.4,0c-0.6-0.1-1-0.2-1.8-0.6c-0.7-0.4-1.2-0.6-2.5-0.7
	c-0.5,0-1.3,0-1.6-0.1c-0.3,0-0.8,0-0.8,0s0.2-0.1,0.3-0.1c0.2,0,0.4,0,0.8-0.1c0.9-0.2,0.8-1.4,0.8-1.4c-1.1-0.1-1.7,0.8-3.3,1.2
	c-1.4,0.4-2.7,1.3-3.3,3.2l-0.1,1.7c0,0,0.2-0.5,0.5-1c0.3-0.5,0.7-1.2,1.7-1.8c1-0.6,2.2-0.6,2.9-0.4c1.1,0.3,1.5,1,1.6,1.3
	c0.2,0.4,0.2,0.8,0.1,0.8c-0.6,0.7-1.2,0.4-1.6,0c-0.3-0.4-0.8-0.6-0.8-0.6c-0.2,0.5-0.4,1.2,0.1,1.8c0.6,0.8,2.3,0.1,2.3,0.1
	c0,0,0,0.3-0.3,0.7c-0.5,0.8-1.5,1.1-2.3,0.8c-0.7-0.2-1.5-0.2-1.5-0.2c0,0,0.3,1.7,1.4,2c1.4,0.3,3-0.5,3.8-1.2
	C48.4,34,48.8,35,47.3,36.5"/>
<path class="st1" d="M45.6,27.1c-1.1,0.1-2.4,0.5-2.4,0.5s2.3-0.4,2.9-0.4c0.6,0,1.2,0,2.1,0.4c1,0.4,1.5,1,1.9,1.8
	c0.3,0.8,0.4,1.3,0.4,1.3s0-0.5-0.2-1.3c-0.2-0.8-0.9-1.6-2.1-2c-0.5-0.2-1.1-0.3-1.1-0.3S46.4,27.1,45.6,27.1"/>
<path class="st0" d="M46.7,36.7c1.6-1.4,1.7-2.7,1.6-2.7c-1.4,1.4-2.8,1.5-2.8,1.5s-1.1,0.7-1.5,2c-0.3,1.3,0.2,2.6,1.4,2.9
	c1.1,0.3,2-0.3,2.2-0.9c0.3-1-0.4-1.5-0.4-1.5s0.4,0.9-0.4,1.3c-0.7,0.3-1.6,0-1.6-1.1C45.3,37.1,46.6,36.7,46.7,36.7"/>
<path class="st0" d="M27.6,30.7c-0.3,0.4-0.1,1.2-0.1,1.2s-0.5-0.2-0.9-0.5c-0.1,0,0.1,0.4,0.2,0.7c0.1,0.2,0.3,0.8,0.3,0.8
	c2.8,2.7,4.9,2.1,5.8,1.5c1.1-0.8,2.2-3,1.9-5.6c-0.3-2.9-2.6-5.5-4.7-5.1c-1.2,0.2-1.7,1.1-1.7,1.1l0.8,0c0,0,0.7-0.7,1.3-0.8
	c1,0,3.2,0.7,3.3,5.2c0.1,2.6-1.1,6-4.1,4.6c-0.5-0.2-1.3-0.8-1.5-1.5c-0.3-0.8,0-1.1,0.3-1.5C28.7,30.6,28.1,30.2,27.6,30.7"/>
<path class="st0" d="M52.5,44.9c-0.8-0.1-1.6,0-2.3,0.6c-0.1,0.1,0.6,0.3,0.6,0.3c0.6,0.2,0.6,0.9,0.6,0.9s-0.9,0.2-1.5,0.1
	c-0.6-0.1-1.2-0.3-1.9-0.4c-0.6-0.1-1.2,0.2-1.2,0.2s0.5,0.4,1,1c0.7,1-0.1,1.8-0.1,1.8s-0.3-0.3-0.9-1c-0.5-0.6-0.8-0.8-2-1.6
	c-0.8-0.5-1.6-1.2-1.6-1.2c1,0,2.1-0.1,3.1-0.9c0.8-0.7,0.8-1.3,0.9-2.2c0.1-0.6,0.5-1.3,0.5-1.3s0.7,0.5,0.7,1.3
	c-0.1,0.8-0.2,1.1-0.6,1.5c0,0,0,0,0.3-0.1c0.3-0.1,1-0.8,1.2-1.1c0.5-1.1,2-0.8,2-0.8s0,0.4-0.6,0.9c-0.3,0.3-0.6,0.5-0.8,0.7
	c0,0,0.6-0.3,2.2-0.3c4.1-0.1,5.8,3.9,4.2,6.4c0,0,0.2-1.3-0.7-2.6C55.3,46.3,54.4,45.2,52.5,44.9"/>
<path class="st0" d="M53.4,51.8c-0.2,1.7,1.6,2,2.2,1.8c0.9-0.3,1.1-1.1,0.8-1.7c0,0-0.1,0.4-0.5,0.6c-0.4,0.2-1,0.3-1.3-0.2
	c-0.4-0.7,0.2-1,0.8-1.7c0.9-0.8,0.9-1.1,0.9-1.1c0-1.2-0.5-1.9-0.5-1.9c-0.2,0.8-1.3,3.4-3.6,2.8c-0.4-0.1-0.7-0.7-0.5-1.2
	c0.2-0.4,0.6-0.4,0.6-0.4s-0.5-0.2-1-0.1c-0.6,0.2-1,0.7-1,1.2c0,0.8,0.5,1.1,1.3,1.3c0,0-0.5,0.4-1,0.9c-0.5,0.6-0.9,1.5-0.3,2.3
	c0.6,0.8,1.8,0.6,2.1-0.1c0.2-0.5,0-1-0.2-1.2c0,0,0,0,0,0c0.2,0.6-0.3,0.9-0.7,0.8c-0.3,0-0.5-0.3-0.5-0.6c0-0.2,0.2-0.4,0.6-0.7
	L53.4,51.8z"/>
<path class="st1" d="M46.5,45.8c0,0,1,0,1.9-0.4c0.8-0.4,1.2-0.8,1.2-0.8s-0.5,0.3-1.3,0.5C47.5,45.4,46.5,45.8,46.5,45.8"/>
<path class="st1" d="M50.4,31.8c0,0-0.1,1.7-0.7,2.7c-0.5,0.9-0.8,1.2-1.8,1.8l0.4,0c0,0,0.8-0.4,1.4-1.4
	C50.6,33.4,50.4,31.8,50.4,31.8"/>
<path class="st1" d="M36.2,37.4c0,0,0.7,0.7,1.2,1.6c0.3,0.6,1,1.7,1,1.7s-0.6-2.2-1.9-3.2C36.3,37.3,36.2,37.4,36.2,37.4"/>
<path class="st1" d="M41.4,33.5c0.7-1.3,0.6-2.1,0.3-2.6c0,0-0.2,0-0.6,0.1c-0.3,0.1-0.6,0.3-0.6,0.3s0-0.6-0.1-1.3
	c-0.2-0.9-0.6-1.5-0.6-1.5s-0.8,0.5-1,1.2c-0.2,0.5-0.2,0.8-0.3,0.9c0,0-0.1-0.2-0.4-0.6c-0.2-0.2-0.5-0.4-0.5-0.4s-1,1.3-0.7,2.6
	c0.2,0.7,0,1.9-1.1,1.8c-0.8-0.1-1-0.8-1-0.8c0.3,0.5,0.8,0.5,0.8,0.5s0.5-0.8,0.3-1.6c-0.2-0.8-0.8-1.1-1.1-1.8
	c-0.4-1-0.4-2.1-0.4-2.1s0.2-4.9-2.1-5c-2.2,0-2.6,2.3-2.6,2.3l1.4,0c0,0-0.2-0.5,0.6-1c1.4-0.9,1.9,1.6,0.7,4.6
	c0,0-0.4,0.7-0.8,1.4c0,0-0.5,0.8-0.6,1.7c-0.1,1,0.5,1.7,0.5,1.7s0.5-0.3,0.7-0.5c0.2-0.2,0.2-0.3,0.2-0.3c0,0,0,0.3,0,1.2
	c0,0.9,0,1.9,0.4,2.4c0.3,0.4,0.8,0.5,0.8,0.5s0.2-0.1,0.3-0.3c0.1-0.1,0.1-0.3,0.1-0.3c0,0.1,0.1,0.3,0.5,0.6
	c0.4,0.3,0.6,0.4,0.6,0.4s0.2-0.2,0.3-0.4c0.1-0.3,0.1-0.5,0.1-0.5s0.5,0.8,1.4,1c0.8,0.2,1.7-0.1,1.7-0.1s0-0.2-0.2-0.5
	c-0.1-0.2-0.3-0.4-0.4-0.4c0.2,0.2,1.2,0.3,1.9,0c1.7-0.6,1.4-2,1.4-2s-0.1,0-0.4,0c-0.3,0-0.4,0-0.4,0C40.5,34.7,41,34.2,41.4,33.5
	"/>
<path class="st0" d="M34.7,30.5c0.3,0.7,0.7,0.9,0.9,1.4c0.4,0.7,0,1.4,0,1.4s-0.7-0.3-1.1-1c0,0,0,0.8,0.3,1.3
	c0.4,0.6,0.9,0.8,1.5,0.7c0.9,0,1.3-1.3,1.1-2c-0.3-1,0.4-2.1,0.4-2.1s0.4,0.2,0.6,0.9c0.1,0.5,0.4,0.8,0.4,0.8s0-0.9,0.2-1.8
	c0.2-0.6,0.7-1,0.7-1s0.3,0.5,0.4,1C40.4,31,40,32,40,32c0.1,0.2,0.2,0,0.7-0.4c0.4-0.3,0.8-0.3,0.8-0.3s0.3,0.6-0.1,1.4
	c-0.3,0.7-0.9,1.4-1.3,1.8c-0.2,0.2-0.5,0.4-0.3,0.4c0.5-0.1,1.2,0,1.2,0c0,0.3-0.2,1-1,1.4c-1.1,0.5-2.6-0.1-2.8,0c0,0,0,0,0,0
	c0.8,0.5,1,1.1,1,1.1s-0.8,0.2-1.3,0.1c-0.8-0.2-0.9-0.6-1.2-0.9c-0.2-0.3-0.4-0.5-0.4-0.5c0,0,0,0.7-0.2,1c0,0-0.6-0.1-0.9-1
	c0,0-0.2-0.8-0.3-0.4c0,0-0.1,0.9-0.3,1.1c0,0-0.7-0.1-0.8-1.3c-0.1-1.2,0.1-2.1-0.2-2.9c0,0,0-0.1-0.2-0.4c0,0-0.1,1.1-0.8,1.3
	c0,0-0.4-0.5-0.3-1.3c0.1-0.7,0.7-1.6,0.7-1.6c0.7-1.1,1.6-3.3,1.4-5.2c-0.1-1.1-0.6-1.3-0.9-1.3c-0.3,0-1.3,0.2-1.6,1.3l-0.8,0
	c0,0,0.7-2,2.1-1.9c1.4,0,2,1.9,2,3.9C34.3,29,34.2,29.5,34.7,30.5"/>
<path class="st1" d="M35.9,35.3c0,0,1,0.2,1.7,0c2.1-0.6,1.8-3,1.8-3s-0.3,2.5-1.9,2.9C36.7,35.3,35.9,35.3,35.9,35.3"/>
<g>
	<defs>
		<rect id="SVGID_1_" x="0.8" y="0.9" width="63.6" height="84.2"/>
	</defs>
	<clipPath id="SVGID_2_">
		<use xlink:href="#SVGID_1_"  style="overflow:visible;"/>
	</clipPath>
	<path class="st3" d="M24.5,30.6c-1.6-0.9-1.6,0.9-1.6,0.9s-1-0.7-0.5-1.7c0.7-1.2,2.7,0.5,2.7,0.5s-0.6-0.9,0.1-1.7
		c0,0,0.8,0.4,1.1,2.2c0.2,1.2,0.9,2,0.9,2C27.1,32.8,25.4,31.1,24.5,30.6"/>
	<path class="st4" d="M34.4,12c0.4-0.4,0.8-0.9,1.2-1.1c0.6-0.3,1-0.3,1-0.3c-0.1,0.7,0.4,1.7,1.7,1.4c0,0,1.1,0.2,1.7-0.5
		c1.4-1.5-0.1-3-0.1-3s1.2-0.3,1.3-1.6c0.2-2.6-2.7-2.4-2.7-2.4s0.5-0.5,0.3-1.4c-0.3-1.1-1.6-1.9-3.2-1.5c-1.6,0.4-2.2,1.8-2.2,1.8
		c-0.1-0.7-0.3-1.6-1.3-2.2c-0.9-0.6-2.4-0.5-3.1,0.2c-0.6,0.6-0.4,1.3-0.4,1.3c-0.6,0-1.9-0.1-2.5,0.9c-0.6,1.1-0.2,2-0.2,2
		s-0.5,0-1,0.6c-0.6,0.6-0.6,1.4-0.2,2.2c0.2,0.4,0.5,0.7,1.2,0.5c0,0,0.8,0.7,1.6,0c0.6-0.5,0.3-1.2,0.3-1.2s0.2-0.3,0.6-0.3
		c0.5,0,0.6,1.4,0.4,2.4c0,0,0,0,0,0s-0.4,0.2-0.5,0.8c-0.2,0.7,0.1,1.1,0.1,1.1s-0.3,0-0.3,0.8c-0.1,0.7,0.2,0.9,0.2,0.9
		s-0.3,0.3-0.4,1.1c-0.1,0.6,0.1,1,0.1,1s-0.3,0.1-0.4,0.9c-0.1,0.6,0.1,1,0.1,1l3.6,1.2c0,0,0.3,0,0.6-0.6c0.3-0.5,0.1-1.1,0.1-1.1
		s0.4-0.1,0.6-0.8c0.3-0.8,0.2-1.2,0.2-1.2c0,0,0.5-0.1,0.7-0.7c0.2-0.4,0.1-0.9,0.1-0.9s0.3-0.1,0.7-0.8C34.5,12.3,34.4,12,34.4,12
		"/>
</g>
<path class="st0" d="M29.1,10.1c0.3-1.1,0.2-2.7-0.5-2.8c-0.4-0.1-0.9,0.1-1,0.4c-0.1,0.2,0.2,0.6-0.1,0.9c-0.2,0.3-0.7,0.5-1.2,0.3
	c-0.5-0.2-0.5-0.9-0.4-1.4c0,0-0.3,0.4-0.3,0.6c0,0.3,0.2,0.5,0,0.6c-0.2,0.1-0.9-0.5-0.7-1.4s0.8-1.3,1.3-1.4c0,0,0.1,0.2,0.3,0.4
	c0.2,0.2,0.8,0.2,0.8,0.2s0.2,0.4,0.7,0.1C28.4,6.4,28.4,6,28.4,6c1.1,0.5,1.5,1.7,1,4.2L29.1,10.1z"/>
<path class="st0" d="M30.2,10.4c-0.4-0.1-0.5-0.1-0.5-0.1c0.4-1.8,0.5-3.7-1.2-4.5c0,0,0-0.3,0.1-0.8c0.1-0.5,0.8-0.3,1.2,0.1
	c0.4,0.5,0.7,1.1,0.7,1.1s-0.2-1-0.9-1.6c-0.7-0.5-1.2-0.1-1.2,0.4c0,0.3-0.1,1.3-0.5,1.3C27.2,6.5,27,5.8,27,5.3c0,0-0.1,0.7,0,0.9
	c0,0-0.6,0-0.8-0.7c-0.2-0.7-0.1-1.2,0.3-1.7c0.4-0.5,1.1-0.7,2.2-0.7c0,0,0,0.4,0.3,0.6c0.3,0.2,0.6,0.1,0.6,0.1S29.8,4,30.1,4
	c0.3,0,0.5,0,0.5,0c0,0,0.5,0.4,0.7,1.9c0.2,1.5-0.1,2.8-0.6,4.6C30.7,10.5,30.6,10.5,30.2,10.4"/>
<path class="st0" d="M30.9,10.6c0,0,0.4-0.9,0.6-2.1c0.3-1.2,0.2-3.1-0.7-4.5c-0.1-0.1,0.3-0.6,0.6,0.1C31.7,4.5,32,5.4,32,6.7
	c0,0.2,0.1,0.3,0.1-0.4c0,0,0-1.5-0.3-2.3c-0.3-0.7-0.7-1.1-0.8-1.1c-0.1,0,0.2,0.4-0.4,0.6c-0.6,0.3-1.1,0-0.6-1.3
	C30,2,29.5,2.5,29.4,3.4c0,0.1-0.7-0.1-0.4-1.2c0.2-0.9,1.6-1.2,2.4-0.9C32.3,1.7,33,2.2,33.1,4c0,0-1.6,5.1-2,6.6L30.9,10.6z"/>
<path class="st0" d="M32.1,11c-0.5-0.2-0.8-0.3-0.8-0.3c0.7-2.3,1.4-4.6,1.9-5.8c0.6-1.8,2.1-3.4,3.9-2.9c2.2,0.6,1.9,3.1,0,3
	c-1.3-0.1-1-1-1.1-1.3c0-0.1-0.8-0.2-1.6,1.4c-0.7,1.6-1.4,3.6-1.5,3.9c-0.1,0.3,0.6-1.4,1.2-2.7c0.7-1.5,1.2-2.2,1.6-2.2
	c0,0,0,0.2,0,0.4c0.1,0.2,0.1,0.3,0.1,0.3s-0.3,0.1-0.8,0.7c-0.4,0.6-0.9,1.6-0.9,1.6s1-1.4,1.3-1.7c0.3-0.3,0.6-0.4,0.6-0.4
	s0.1,0.1,0.4,0.3c0.2,0.1,0.4,0.1,0.4,0.1s-0.6,0.5-1.4,1.6c-0.7,1.1-1.8,3.1-2.5,4.6C33,11.3,32.6,11.2,32.1,11"/>
<path class="st0" d="M33.2,11.4c1.4-3,2.6-5.3,4.1-6.3c0,0,0.3,0,0.6-0.1c0.3-0.1,0.3-0.2,0.3-0.2c0,0,0.9-0.2,1.7,0.3
	c0.8,0.4,1,1.1,1,1.6c0,0-0.2-0.2-0.3-0.2c-0.2-0.1,0.2,0.3,0.2,0.6c0,0.3-0.1,0.6-0.2,0.7c0,0-0.1-0.4-0.3-0.7
	c-0.1-0.1,0.1,0.2,0.1,0.6c0,0.3-0.1,0.4-0.4,0.6c-0.2,0.1-0.7,0.3-1.5-0.2c0,0,0.4-0.1,0.4-0.4c0-0.1-0.4,0.3-0.9,0
	c-0.4-0.3,0.1-0.9,0-0.9c-0.1,0-0.9,0-1.6,0.5c-0.7,0.6-1,1-1,1.1c0,0.1,0.8-0.7,1.2-0.9c0.7-0.5,1.1-0.4,1.1-0.4
	c-0.1,0.3-0.1,0.5,0.2,0.7c0,0-0.6-0.1-1.7,0.9c-1.3,1.2-2.4,3-2.4,3L33.2,11.4z"/>
<path class="st0" d="M34.2,11.8C34.2,11.8,34.1,11.8,34.2,11.8c0.9-1.2,1.8-2.5,2.4-3c0.7-0.6,1.3-0.7,1.6-0.7c0,0,0.2,0.3,0.7,0.4
	c0.5,0.1,0.7,0.1,0.7,0.1s1,0.8,0.8,1.8c-0.2,0.8-0.6,1-0.6,1s0.1-0.3,0-0.6c0-0.2-0.2-0.5-0.2-0.5s0.1,0.5,0,0.9
	c-0.2,0.5-0.4,0.7-0.8,0.6c-0.1,0,0.3-0.3,0.3-1.1c0-0.6-0.3-1.1-0.8-1.5c0,0,0.8,0.8,0.6,1.5c-0.2,0.7-0.4,0.9-0.8,1
	c-0.3,0.1-0.6-0.1-0.4-0.4c0.1-0.2,0.2-0.4,0.1-0.5c-0.1-0.1-0.4,0.7-0.6,0.4c-0.4-0.4,0.1-1.1,0-1.4c-0.1-0.3-0.4-0.3-0.8-0.2
	C35.7,10,34.2,11.8,34.2,11.8"/>
<path class="st5" d="M36.6,10c0.3,0,0,0.4,0,0.4s-0.1-0.1-0.4,0c-0.3,0-0.9,0.4-0.9,0.4S36.2,10,36.6,10"/>
<path class="st0" d="M29,10.4c-0.3,0.3-0.5,0.7-0.2,1.5c0,0,0.7,0,2.4,0.6c1.8,0.6,2.3,1,2.3,1c0.5-0.4,0.7-0.8,0.6-1.2
	c0,0-0.6-0.4-2.5-1.1C29.7,10.5,29,10.4,29,10.4"/>
<path class="st0" d="M28.7,12.2c-0.3,0.3-0.4,0.7-0.2,1.4c0,0,0.6-0.1,2.1,0.4c1.6,0.6,2.1,1,2.1,1c0.5-0.3,0.6-0.6,0.5-1.3
	c0,0-0.5-0.4-2.3-1C29.3,12.1,28.7,12.2,28.7,12.2"/>
<path class="st0" d="M28.5,13.9c-0.3,0.3-0.6,1.1-0.4,1.8c0,0,0.5-0.1,1.8,0.4c1.4,0.5,1.8,0.9,1.8,0.9c0.4-0.3,0.7-1,0.7-1.7
	c0,0-0.4-0.4-1.9-0.9C29,13.7,28.5,13.9,28.5,13.9"/>
<path class="st0" d="M28.2,15.9c-0.3,0.3-0.6,0.9-0.4,1.6c0,0,0.6,0.2,1.6,0.5c1.2,0.4,1.7,0.5,1.7,0.5c0.4-0.3,0.6-0.8,0.5-1.4
	c0,0-0.2-0.3-1.6-0.8C28.6,15.9,28.2,15.9,28.2,15.9"/>
<path class="st1" d="M37.7,19.4c0.1,0.2,0.2,0.7-0.1,1.6c-0.2,0.6-0.6,1.8-2.1,2.4c-0.2,0.1-0.3,0.1-0.5,0.1c0.4,0.4,1.2,0.2,2,0.3
	c0.9,0.1,1.1,0.8,1.1,0.8s-0.6-0.2-1.2,0c-0.6,0.1-1,0.4-1,0.4c1.1-0.1,1.6,0.7,1.7,1.2c0.2,0.6,0,0.9,0,0.9s0-0.3-0.4-0.5
	c-0.5-0.3-1.2-0.1-1.2-0.1s0.1,0.5,0.4,0.9c0.4,0.5,0.9,0.6,1.1,1.2c0.3,0.8-0.5,1.3-0.5,1.3s-0.1-0.4-0.3-0.6
	c-0.3-0.2-0.6-0.1-0.6-0.1s0,0.1,0.1,0.7c0.1,0.6-0.2,1-0.5,1.3c0,0-0.1-0.4-0.6-0.6c-0.4-0.3-0.5-0.5-0.5-0.5
	c0,0.7-0.7,1.7-0.7,1.7s-0.5-0.6-0.9-1c-0.4-0.4-0.7-0.7-0.7-0.7c-0.2,0.5-0.2,1.4-0.2,1.4s-1.2-0.8-1.7-1.4c-0.4-0.4-0.6-1-0.6-1
	c-0.2,0.3-1.2,1-1.2,1s-0.4-0.5-0.6-1c-0.2-0.5-0.4-1-0.4-1c-0.6,0.5-1.2,0.9-1.2,0.9c0,0-0.7-0.6-0.7-1.4c0-0.6,0.1-0.8,0.2-1
	c-0.8-0.1-1.3-0.1-2.2-0.5c-1.3-0.5-3-0.8-2.9-1c0.1-0.2,1.1-0.5,2-0.4c1.2,0.2,2.1,0.4,2.1,0.4c-0.3-0.3-1.5-1.2-3.3-1.4
	c-1.7,0-1.5,1-1.7,1c-0.1,0-0.6-0.4-0.8-1.2c-0.3-0.9,0.1-2,0.6-2.4c0.9-0.7,3.1-0.5,3.1-0.5c-0.4-0.2-0.6-0.9,0.8-2.2
	c0,0,0.4,0,2.1,0.3c1.7,0.4,2.6,0.6,4,1.1c1.3,0.4,2.2,0.7,2.2,0.7c0.5-0.2,1.2,0,2.3-0.1c1.3-0.1,2.3-0.3,2.8-0.7
	C37.6,19.7,37.7,19.4,37.7,19.4"/>
<path class="st0" d="M37.5,20c-0.1,0.1-0.2,0.2-0.4,0.4C36.4,20.8,36,21,34.3,21c-1.6,0-2,0-2.3,0.3c-0.3,0.2-0.4,0.4-0.4,0.4
	s-0.3-0.4,0.1-0.8c0,0-0.7-0.3-2.3-0.8c-1.6-0.5-1.9-0.5-3.6-0.9c-1.5-0.3-1.9-0.3-1.9-0.3c-0.4,0.3-0.7,0.5-0.9,1
	c-0.2,0.5,0,0.7,0.3,0.8c0.3,0.1,0.6-0.3,1.5,0c0.8,0.3,1.8,0.8,1.8,0.8s-0.1,0.1-0.7,0c0,0-0.1,0-0.1,0c-0.1,0.1-0.4,0.5-0.7,0.6
	c-0.4,0.1-0.9,0.2-1.3-0.1c-0.3-0.3-0.3-0.6-0.2-0.8c-0.2,0-0.3-0.1-0.4-0.1c-0.8,0-2.2-0.2-3.1,0.4c-0.5,0.3-0.8,1.2-0.6,2
	c0.2,0.6,0.4,0.9,0.4,0.9s0.4-0.9,1.7-0.8c0.9,0,1.7,0.3,3,1.1c0.8,0.5,1.1,0.9,1.1,0.9s-1.5-0.1-2.5-0.3c-1.2-0.3-1.8,0-1.8,0
	c0,0,1.2,0.3,2.5,0.8c1,0.4,2.6,0.7,3.9,0.4c0,0,0,0,0,0s0,0.4-1.4,0.4c-0.5,1.2,0.2,1.8,0.2,1.8c1.2-0.6,1.9-1.6,1.9-1.6
	c0,0.4-0.4,0.8-0.3,0.8c0.3,0.9,0.7,1.8,0.8,1.8c0.4-0.2,0.6-0.5,0.9-0.9c0.3-0.5,0.4-1.2,0.4-1.2c0.1,0.2,0.3,0.1,0.3,0.3
	c-0.1,0.3-0.3,0.9-0.3,1.1c0.3,1,1.7,2,1.7,2c0-1.3,0.3-1.3,0.3-1.3c0.7,0.5,1.7,1.7,1.7,1.7c0.7-1,0-3.2,0-3.2
	c0.7,0.8,0.6,1.2,1.1,1.8c0.4,0.5,0.8,0.8,0.8,0.8s0.2-0.5,0-1c-0.1-0.5-0.1-0.7-0.1-0.7c1-0.3,1.4,0.3,1.4,0.3
	c0.4-0.8-0.8-1.2-1.1-1.6c-0.3-0.4-0.4-1-0.4-1c-0.2,0.1-0.3,0.3-1.2,0.2c-0.9-0.1-0.9-0.7-0.9-0.7s0.3,0.3,0.7,0.4
	c0.5,0.1,0.9-0.1,1.5-0.3c0.6-0.2,1.4,0,1.4,0s0-0.6-0.8-0.9c-0.6-0.2-1.2-0.1-1.2-0.1c0.6-1,2.1-1,2.1-1c-0.5-0.3-0.8-0.1-1.8-0.2
	c-0.8-0.1-1-0.5-1.1-0.6c-0.8,0-1.8-0.3-1.9-0.4c0,0,0.4,0.1,1.1,0.1c0.7,0,1.8,0,2.6-0.9C37.1,21.8,37.5,20.9,37.5,20"/>
<path class="st1" d="M24,16.1c-0.2,0-0.9,0.5-0.2,1l-0.1,0.7c0,0-0.5,0.1-0.5,0.5c0,0.4,0.2,0.5,0.2,0.5s0.3,0.1,0.4,0.1
	c0.1,0,1.4,0.1,3.9,0.8c2.6,0.7,4.1,1.3,4.3,1.4l0.1,0c0,0,1-0.2,1.5-0.2c0.4,0,1.3-0.1,1.3-0.1l-0.1-0.4c0.2-0.2,0.5-0.4,0.2-0.9
	c0,0-1.7-1-4.7-2.1C27.2,16.5,24.6,16.1,24,16.1"/>
<path class="st0" d="M24.2,17.1c0,0,1.7,0.2,4.6,1.1c2.9,0.8,5.4,2,5.4,2l-0.3,0.7c0,0-2.2-1-5.2-1.8c-3-0.8-3.7-0.9-4.3-1
	L24.2,17.1z"/>
<path class="st1" d="M21.6,22c0,0-0.4-0.1-0.3-0.4c0.2-0.3,0.7-0.2,1-0.1c0.4,0.1,0.7,0.4,0.7,0.4s-1-0.4-1.3-0.2
	C21.5,21.8,21.6,22,21.6,22"/>
<path class="st1" d="M31.9,22.8c0,0-0.3-0.8,1.1-0.9c1.4-0.2,3.1-0.4,3.6-0.8c0,0-0.1,0.3-0.7,0.5c-0.5,0.2-2.2,0.5-2.9,0.6
	c-0.6,0.1-0.7,0.3-0.7,0.3l0.5,0.1C32.8,22.7,32.1,22.8,31.9,22.8"/>
<path class="st1" d="M30.3,17.7c-0.4-0.4-0.5-0.8-0.5-0.8S29.7,17,29,17.2c-0.8,0.2-1.6,0-2-0.4c0,0-0.3-0.3-0.4-0.5
	c-0.1-0.2-0.2-0.4-0.2-0.4c-0.3,0.3-0.7,0.5-1.1,0.6c-1,0.1-2-0.7-2.5-2.2c-0.4,0.3-0.9,0.2-1.2-0.1c0,0,0,0-0.1-0.1
	c-0.4-0.3-0.7-0.4-0.7-0.4l0,0c0,0,0.3-0.3,0.6-0.7l0,0c0-0.1,0.1-0.1,0.1-0.2c0.1-0.1,0.3-0.2,0.5-0.3c-0.1-0.3,0-0.7,0.2-0.9
	c0,0,0,0,0.1-0.1c0.3-0.4,0.4-0.7,0.4-0.7l0,0c0,0,0.3,0.3,0.7,0.5l0,0c0.1,0,0.1,0.1,0.2,0.1c0.2,0.2,0.3,0.4,0.3,0.6
	c0.3-0.1,0.6,0,0.9,0.2c0,0,0,0,0.1,0.1c0.4,0.3,0.7,0.4,0.7,0.4l0,0c0,0-0.3,0.3-0.6,0.7l0,0c0,0.1-0.1,0.1-0.1,0.2
	c-0.2,0.2-0.4,0.3-0.7,0.3c0.1,0.5,0.4,0.8,0.7,0.8c0.5,0,0.9-0.6,1.1-1.5l0,0c-0.2-0.3-0.2-0.6,0-0.9c0.3-0.4,0.8-0.5,1.2-0.2
	c0.4,0.3,0.5,0.8,0.2,1.1c-0.1,0.1-0.1,0.1-0.2,0.2c-0.1,0.9,0.4,1.7,1.1,1.8c0.4,0.1,0.9-0.2,1.2-0.6c-0.4-0.1-0.8-0.3-0.9-0.7
	c0,0,0-0.1,0-0.1c-0.2-0.5-0.5-0.8-0.5-0.8l0,0c0,0,0.5-0.1,0.9-0.4l0,0c0.1,0,0.2-0.1,0.2-0.1c0.2-0.1,0.5-0.1,0.7,0v0
	c0.1-0.3,0.3-0.6,0.7-0.8c0,0,0.1,0,0.1,0c0.5-0.2,0.8-0.5,0.8-0.5l0,0c0,0,0.1,0.4,0.4,0.8c0,0,0,0,0.1,0.1c0.2,0.3,0.3,0.7,0.2,1
	l0,0c0.2,0.1,0.4,0.2,0.6,0.4c0.1,0.1,0.1,0.2,0.1,0.2l0,0c0.2,0.5,0.6,0.8,0.6,0.8l0,0c0,0-0.4,0.1-0.8,0.3c0,0,0,0-0.1,0.1
	c-0.3,0.2-0.8,0.3-1.2,0.1c0,0.5,0.2,0.9,0.6,1.1c0.6,0.3,1.5-0.1,1.9-0.9c0-0.1,0-0.2,0-0.3c0-0.5,0.4-0.8,0.8-0.8
	c0.5,0,0.8,0.4,0.8,0.8c0,0.3-0.2,0.6-0.5,0.8l0,0c-0.4,0.8-0.4,1.6,0,1.8c0.3,0.2,0.7,0,1.1-0.3c-0.2-0.2-0.3-0.4-0.4-0.6
	c0-0.1,0-0.2,0-0.2v0c0.1-0.5,0-0.9,0-0.9l0,0c0,0,0.4,0.1,0.8,0.1c0,0,0.1,0,0.1,0c0.3,0,0.6,0.1,0.9,0.3c0.2-0.2,0.4-0.3,0.6-0.3
	c0.1,0,0.2,0,0.2,0h0c0.5,0.1,0.9,0,0.9,0l0,0c0,0-0.1,0.3-0.1,0.8c0,0,0,0,0,0.1c0,0.3-0.1,0.7-0.4,0.9c0.1,0.1,0.2,0.3,0.2,0.5
	c0,0.1,0,0.2,0,0.2v0c-0.1,0.5,0,0.9,0,0.9l0,0c0,0-0.4-0.1-0.8-0.1c0,0-0.1,0-0.1,0c-0.5,0.1-0.9-0.2-1.1-0.6
	c-1.3,1-2.6,1.1-3.3,0.4c-0.3-0.3-0.5-0.6-0.5-1.1c0,0-0.2,0.1-0.4,0.2c-0.2,0.1-0.5,0.1-0.5,0.1C31.5,18.4,30.7,18.2,30.3,17.7"/>
<path class="st0" d="M30,16.3c0.2,0.9,0.8,1.6,1.7,1.8c0.6,0.1,1.3-0.1,1.7-0.5l0,0c0,0.6,0.1,1.1,0.5,1.4c0.6,0.5,1.9,0.3,2.9-0.6
	c0,0,0,0,0,0l0,0c0,0,0.1-0.1,0.1-0.1c0.1,0,0.2,0.1,0.2,0.2c0,0.3,0.3,0.5,0.7,0.5c0,0,0,0,0,0c0.3,0,0.5,0,0.5,0l0,0
	c0,0-0.1-0.2,0-0.6v0c0,0,0-0.1,0-0.2c0-0.2-0.1-0.3-0.2-0.4l0,0c0,0-0.1-0.1-0.1-0.2c0-0.1,0.1-0.2,0.1-0.2
	c0.2-0.1,0.3-0.3,0.3-0.6c0,0,0,0,0,0c0-0.3,0-0.5,0-0.5l0,0c0,0-0.2,0.1-0.6,0h0c0,0-0.1,0-0.1,0c-0.2,0-0.4,0.2-0.5,0.4
	c0,0.1-0.1,0.1-0.2,0.1s-0.1,0-0.2-0.1c0,0,0,0,0-0.1c-0.1-0.2-0.3-0.3-0.6-0.3c0,0,0,0,0,0c-0.3,0-0.5,0-0.5,0l0,0
	c0,0,0.1,0.2,0,0.6c0,0.1,0,0.1,0,0.2c0,0.2,0.1,0.3,0.2,0.4c0.1,0,0.1,0.1,0.1,0.2c0,0.1,0,0.1-0.1,0.2c-0.5,0.5-1.1,0.7-1.5,0.5
	C34.2,18,34.2,17,34.7,16c0,0,0,0,0,0c0.2-0.1,0.4-0.2,0.4-0.5c0-0.3-0.2-0.5-0.5-0.5S34,15.2,34,15.5c0,0.1,0,0.2,0.1,0.2
	c0,0.1,0,0.1-0.1,0.2c-0.5,1-1.6,1.5-2.4,1.1c-0.5-0.3-0.8-0.9-0.7-1.6l0,0c0-0.1,0.1-0.2,0.2-0.2c0,0,0.1,0,0.1,0
	c0.3,0.2,0.6,0.2,0.9,0c0,0,0,0,0,0c0.3-0.2,0.6-0.2,0.6-0.2l0,0c0,0-0.2-0.2-0.4-0.6h0c0-0.1-0.1-0.1-0.1-0.2
	c-0.1-0.2-0.3-0.3-0.5-0.3l0,0c-0.1,0-0.2-0.1-0.2-0.2c0,0,0-0.1,0-0.1l0,0c0.2-0.2,0.1-0.6-0.1-0.8c0,0,0,0,0,0
	c-0.2-0.3-0.3-0.6-0.3-0.6s-0.2,0.2-0.6,0.3c0,0,0,0-0.1,0c-0.3,0.1-0.5,0.4-0.5,0.6l0,0c0,0,0,0.1,0,0.1c-0.1,0.1-0.2,0.1-0.3,0
	l0,0c-0.2-0.1-0.4-0.1-0.6,0c-0.1,0-0.1,0.1-0.2,0.1l0,0c-0.3,0.2-0.7,0.3-0.7,0.3l0,0c0,0,0.2,0.2,0.4,0.5c0,0,0,0,0,0.1
	c0.1,0.3,0.4,0.5,0.8,0.5c0,0,0.1,0,0.1,0c0.1,0.1,0.1,0.2,0.1,0.3l0,0c-0.3,0.6-0.9,1-1.5,0.9c-0.9-0.1-1.5-1.1-1.3-2.2
	c0-0.1,0-0.1,0-0.2c0.1,0,0.1-0.1,0.2-0.2c0.2-0.2,0.1-0.5-0.2-0.7c-0.2-0.2-0.6-0.1-0.7,0.1c-0.1,0.2-0.1,0.4,0,0.6c0,0,0,0,0,0
	c-0.1,1.1-0.7,1.9-1.4,1.8c-0.5,0-0.8-0.5-1-1.2c0-0.1,0-0.1,0-0.2c0-0.1,0.1-0.1,0.2-0.1c0.2,0,0.3-0.1,0.4-0.2
	c0,0,0.1-0.1,0.1-0.1C24.8,13.2,25,13,25,13l0,0c0,0-0.2-0.1-0.4-0.3c0,0,0,0,0,0c-0.2-0.2-0.4-0.2-0.6-0.1c0,0-0.1,0-0.1,0
	c-0.1,0-0.1,0-0.2,0c-0.1,0-0.1-0.1-0.1-0.2c0-0.2,0-0.4-0.2-0.6c0,0-0.1-0.1-0.1-0.1h0c-0.3-0.1-0.4-0.3-0.4-0.3l0,0
	c0,0-0.1,0.2-0.2,0.4c0,0,0,0,0,0c-0.2,0.2-0.2,0.4-0.1,0.7c0,0.1,0,0.2,0,0.3c0,0.1-0.1,0.1-0.2,0.1l-0.1,0c-0.1,0-0.3,0.1-0.4,0.2
	c0,0-0.1,0.1-0.1,0.1v0c-0.1,0.3-0.3,0.5-0.3,0.5l0,0c0,0,0.2,0.1,0.4,0.3c0,0,0,0,0,0c0.2,0.2,0.6,0.2,0.8,0c0.1-0.1,0.2-0.1,0.3,0
	c0,0,0.1,0.1,0.1,0.1l0,0c0,0,0,0,0,0.1c0.4,1.4,1.3,2.2,2.1,2.1c0.5-0.1,0.9-0.4,1.2-0.9l0,0c0.2,0.6,0.6,1.1,1.2,1.4
	C28.4,17.2,29.3,16.9,30,16.3"/>
<path class="st1" d="M37.8,17.7c0,0.3-0.2,0.6-0.6,0.6c-0.3,0-0.6-0.2-0.6-0.6c0-0.3,0.2-0.6,0.6-0.6C37.6,17.1,37.8,17.4,37.8,17.7
	"/>
<path class="st0" d="M37.6,17.7c0,0.2-0.1,0.3-0.3,0.3c-0.2,0-0.3-0.1-0.3-0.3c0-0.2,0.1-0.3,0.3-0.3C37.5,17.4,37.6,17.5,37.6,17.7
	"/>
<path class="st1" d="M31.2,14.2c0,0.3-0.2,0.6-0.6,0.6c-0.3,0-0.6-0.2-0.6-0.6c0-0.3,0.2-0.6,0.6-0.6C30.9,13.7,31.2,13.9,31.2,14.2
	"/>
<path class="st0" d="M30.9,14.2c0,0.2-0.1,0.3-0.3,0.3c-0.2,0-0.3-0.1-0.3-0.3c0-0.2,0.1-0.3,0.3-0.3C30.8,13.9,30.9,14,30.9,14.2"
	/>
<path class="st1" d="M23.7,13.3c0,0.3-0.2,0.6-0.6,0.6c-0.3,0-0.6-0.2-0.6-0.6c0-0.3,0.2-0.6,0.6-0.6C23.5,12.8,23.7,13,23.7,13.3"
	/>
<path class="st0" d="M23.5,13.3c0,0.2-0.1,0.3-0.3,0.3c-0.2,0-0.3-0.1-0.3-0.3c0-0.2,0.1-0.3,0.3-0.3C23.3,13,23.5,13.1,23.5,13.3"
	/>
<path class="st1" d="M23.4,17.7c0.1,0.1,0.4,0.3,0.5,0.5c0.2,0.1,0.4,0,0.5,0c0.2-0.1,0.3-0.2,0.4-0.2c0.2-0.1,0.1-0.3-0.1-0.5
	c-0.2-0.2-0.3-0.3-0.5-0.4c-0.1-0.1-0.3-0.1-0.5-0.1c-0.2,0.1-0.4,0.2-0.5,0.3C23.2,17.4,23.2,17.6,23.4,17.7"/>
<path class="st0" d="M24.6,17.6c0,0.2-0.2,0.4-0.4,0.4c-0.2,0-0.4-0.2-0.4-0.4c0-0.2,0.2-0.4,0.4-0.4C24.4,17.2,24.6,17.4,24.6,17.6
	"/>
<path class="st1" d="M25.8,18.2c0.1,0.1,0.4,0.3,0.5,0.5c0.2,0.1,0.4,0,0.5,0c0.2-0.1,0.3-0.2,0.4-0.2c0.2-0.1,0.1-0.3-0.1-0.5
	c-0.2-0.2-0.3-0.3-0.5-0.4c-0.1-0.1-0.4-0.2-0.5-0.1c-0.2,0.1-0.3,0.2-0.5,0.3C25.6,17.8,25.6,18,25.8,18.2"/>
<path class="st0" d="M26.9,18.1c0,0.2-0.2,0.4-0.4,0.4c-0.2,0-0.4-0.2-0.4-0.4c0-0.2,0.2-0.4,0.4-0.4C26.7,17.6,26.9,17.8,26.9,18.1
	"/>
<path class="st1" d="M28.6,18.9c0.1,0.1,0.4,0.3,0.5,0.5c0.2,0.1,0.4,0,0.5,0c0.2-0.1,0.3-0.2,0.4-0.2c0.2-0.1,0.1-0.3-0.1-0.5
	c-0.2-0.2-0.3-0.3-0.5-0.4c-0.1-0.1-0.4-0.2-0.5-0.1c-0.2,0.1-0.3,0.2-0.5,0.3C28.4,18.5,28.4,18.7,28.6,18.9"/>
<path class="st0" d="M29.8,18.8c0,0.2-0.2,0.4-0.4,0.4c-0.2,0-0.4-0.2-0.4-0.4c0-0.2,0.2-0.4,0.4-0.4C29.6,18.3,29.8,18.5,29.8,18.8
	"/>
<path class="st1" d="M31.3,19.8c0.1,0.1,0.4,0.3,0.5,0.5c0.2,0.1,0.4,0,0.5,0c0.2-0.1,0.3-0.2,0.4-0.2c0.2-0.1,0.1-0.3-0.1-0.5
	c-0.2-0.2-0.3-0.3-0.5-0.4c-0.1-0.1-0.4-0.2-0.5-0.1c-0.2,0.1-0.3,0.2-0.5,0.3C31,19.4,31.1,19.6,31.3,19.8"/>
<path class="st0" d="M32.4,19.7c0,0.2-0.2,0.4-0.4,0.4c-0.2,0-0.4-0.2-0.4-0.4c0-0.2,0.2-0.4,0.4-0.4C32.2,19.2,32.4,19.4,32.4,19.7
	"/>
<path class="st1" d="M35.3,20.9c0.1,0-0.1-0.2-0.2-0.3c-0.2-0.2-0.3-0.3-0.5-0.4c-0.1-0.1-0.4-0.2-0.5-0.1c-0.2,0.1-0.3,0.2-0.5,0.3
	c-0.1,0.1-0.1,0.3,0.1,0.5c0,0,0.1,0.1,0.1,0.1C33.8,21,35.2,21,35.3,20.9"/>
<path class="st0" d="M34.8,20.6c0-0.2-0.2-0.4-0.4-0.4c-0.2,0-0.4,0.2-0.4,0.4h0.4C34.7,20.7,34.8,20.6,34.8,20.6"/>
<path class="st0" d="M32.9,20.7c-0.9-0.4-2.3-0.9-4-1.4c-3.1-0.9-4.8-1.1-5-1.1c-0.3,0-0.5,0.3-0.1,0.4c0.3,0.1,1.8,0.2,5,1.1
	c1.3,0.4,2.3,0.7,3.2,1.1c0,0,0.1,0,0.3-0.1C32.4,20.7,32.9,20.7,32.9,20.7"/>
<path class="st0" d="M24,16.9c0.3,0.1,1.8,0.2,5,1.1c3.2,0.9,5.3,1.9,5.4,2c0.3,0.2,0.5-0.2,0.1-0.4c-0.2-0.1-2.3-1.1-5.4-2
	c-3.1-0.9-4.8-1.1-5-1.1C23.8,16.5,23.7,16.8,24,16.9"/>
<path class="st0" d="M33.4,18.8c-0.1-0.2-0.2-0.5-0.3-0.7c0,0-0.2,0.1-0.4,0.2c-0.2,0.1-0.4,0.1-0.5,0.1v0
	C32.7,18.5,33.1,18.7,33.4,18.8L33.4,18.8z"/>
<path class="st0" d="M26.5,16.4c0.1,0.1,0.2,0.2,0.3,0.4h0c-0.4-0.1-0.8-0.2-1.2-0.3l0,0c0.2-0.1,0.4-0.3,0.6-0.5
	C26.4,16,26.4,16.2,26.5,16.4"/>
<path class="st0" d="M28.8,17.3C28.8,17.3,28.8,17.3,28.8,17.3C28.8,17.2,28.8,17.2,28.8,17.3L28.8,17.3z"/>
<path class="st0" d="M30.4,17.7L30.4,17.7c-0.4-0.4-0.5-0.8-0.5-0.8S29.8,17,29,17.2c0,0,0,0,0,0c-0.1,0-0.1,0-0.2,0
	c0.1,0,0.3,0.1,0.4,0.1C29.6,17.5,30,17.6,30.4,17.7"/>
<path class="st1" d="M30.3,27.7c0.2,0.3,0.3,0.4,0.6,0.9c0,0,0.3-0.3,0.6-0.8c0.6-0.9,0.1-1.9,0.1-2.2c0,0,0,0,0,0.1
	c0,0.3,0.3,1.6-0.6,2.3c0,0,0.2-0.1-0.6-1.1C30.3,26.8,29.9,27.1,30.3,27.7"/>
<path class="st1" d="M32.3,61.6c0.2,0.3,0.6,0.4,0.8,0.9c0,0,0.2-0.3,0.5-0.7c0.5-0.8,0.3-1.2,0.3-1.4c0,0-0.1-0.3-0.1-0.3
	c0,0.2,0.1,1.2-0.7,1.8c0,0-0.9-0.4-1.3-2C31.7,59.9,31.6,60.8,32.3,61.6"/>
<path class="st1" d="M32.7,30c-0.7-0.8-0.9-1.7-0.9-1.7h0c0,0,0.1,0.9,0.4,1.4c0.4,0.6,0.8,1,0.8,1S32.9,30.2,32.7,30"/>
<path class="st1" d="M21.4,24.6c0,0,1.1-0.6,3,0.2c0.7,0.3,0.9,0.7,0.9,0.7L24,25.4c0,0-0.1-0.3-0.6-0.5
	C22.7,24.6,22,24.7,21.4,24.6"/>
<path class="st0" d="M23.8,24.8c0,0,0.3,0.2,0.4,0.4l0.8,0.1C25,25.4,24.5,24.9,23.8,24.8"/>
<path class="st1" d="M22.9,56.8c0,0,1.3-0.8,3.2,0.1c0.7,0.3,0.9,0.8,0.9,0.8l-1.4-0.1c0,0-0.1-0.5-0.8-0.7
	C24.1,56.8,23.4,56.9,22.9,56.8"/>
<path class="st0" d="M25.4,56.9c0,0,0.4,0.2,0.6,0.5c0,0,0.2,0.1,0.4,0.1c0.3,0.1,0.4,0.1,0.4,0.1S26.3,57.1,25.4,56.9"/>
<path class="st0" d="M24.5,21.2c0.3,0,0.6,0.1,0.8,0.3C25,22,24.5,22,24.2,21.9c0.1,0,0.3-0.1,0.4-0.3
	C24.6,21.4,24.6,21.3,24.5,21.2"/>
</svg>
