<?xml version="1.0" encoding="utf-8"?>
<!-- Generator: Adobe Illustrator 19.2.1, SVG Export Plug-In . SVG Version: 6.00 Build 0)  -->
<svg version="1.1" id="Lager_1" xmlns="http://www.w3.org/2000/svg" xmlns:xlink="http://www.w3.org/1999/xlink" x="0px" y="0px"
	 viewBox="0 0 79.6 81.3"  xml:space="preserve">
<path class="st0" d="M65.9,51.6l2.9-2.9l2.9-2.9l1.8-1.8l1.2-1.2c1.6-1.6,1.6-4.3,0-5.9L39.5,1.7c-1.6-1.6-4.3-1.6-5.9,0l-8.8,8.8
	c-1.6,1.6-1.6,4.3,0,5.9l35.3,35.3C61.6,53.3,64.3,53.3,65.9,51.6"/>
<path class="st0" d="M46.8,70.4C46.8,70.3,46.8,70.3,46.8,70.4c0-0.1,0-0.1,0-0.2c-0.2-7.9-9.6-15.6-9.6-15.6s-9.3,7.8-9.6,15.6v0.1
	v0.1c0,0.1,0,0.1,0,0.2s0,0.1,0,0.2l0,0c0.1,5.2,4.3,9.4,9.6,9.4c5.2,0,9.5-4.2,9.6-9.4l0,0c0-0.1,0-0.1,0-0.2S46.8,70.4,46.8,70.4
	 M43.6,70.6L43.6,70.6c0,1.7-0.7,3.3-1.9,4.4c-1.2,1.2-2.8,1.8-4.5,1.8c-0.3,0-0.6,0-0.9-0.1c3.5-2.1,5.8-5.9,5.8-10.2
	c0-0.5,0-1-0.1-1.4c1,1.8,1.5,3.6,1.6,5.1l0,0c0,0,0,0,0,0.1l0,0v0.1C43.6,70.6,43.6,70.6,43.6,70.6"/>
<path class="st0" d="M33,49.2l-1.1-1.1l-0.3-0.3l-3-3L28,44.2l-0.9-0.9c-0.8-0.8-2.1-0.8-2.9,0l-23,23c-0.8,0.8-0.8,2.1,0,2.9
	l5.9,5.9c0.8,0.8,2.1,0.8,2.9,0l23-23C33.8,51.4,33.8,50.1,33,49.2"/>
<polygon class="st0" points="73.2,47.2 70.3,50.2 73.2,53.1 61.5,64.9 35,38.4 30.4,43.1 33.3,46 35,44.3 61.5,70.7 79.1,53.1 "/>
</svg>
