<?xml version="1.0" encoding="utf-8"?>
<!-- Generator: Adobe Illustrator 19.2.1, SVG Export Plug-In . SVG Version: 6.00 Build 0)  -->
<svg version="1.1" id="Lager_1" xmlns="http://www.w3.org/2000/svg" xmlns:xlink="http://www.w3.org/1999/xlink" x="0px" y="0px"
	 viewBox="0 0 281.6 279.3" style="enable-background:new 0 0 281.6 279.3;" xml:space="preserve">
<g>
	<g>
		<circle class="st0" cx="141.5" cy="139.5" r="137.8"/>
		<g>
			<g>
				<g>
					<path class="st1" d="M111.1,120.3l49.2,49.2c-3.3,7.7-1.8,17,4.5,23.3c5.5,5.5,13.4,7.4,20.5,5.5l-13-13l15-15l13,13
						c1.9-7.1,0.1-14.9-5.5-20.5c-6.3-6.3-15.6-7.8-23.3-4.5l-49.2-49.2c3.3-7.7,1.8-17-4.5-23.3c-5.5-5.5-13.4-7.4-20.5-5.5l13,13
						l-15,15l-13-13c-1.9,7.1-0.1,14.9,5.5,20.5C94.1,122.1,103.4,123.6,111.1,120.3z"/>
				</g>
				<g>
					<path class="st2" d="M164.8,166.7c-1,0-2-0.4-2.8-1.2l-47-47c-1.6-1.6-1.6-4.1,0-5.6c1.6-1.6,4.1-1.6,5.6,0l47,47
						c1.6,1.6,1.6,4.1,0,5.6C166.8,166.4,165.8,166.7,164.8,166.7z"/>
				</g>
			</g>
			<g>
				<g>
					<polygon class="st3" points="175,97.4 112.5,158.6 117.4,163.5 179.2,101.7 					"/>
					<polygon class="st4" points="183.5,106 179.2,101.7 117.4,163.5 122.3,168.4 					"/>
				</g>
				
					<rect x="144.9" y="81.7" transform="matrix(0.7072 -0.707 0.707 0.7072 -14.1958 134.6592)" class="st1" width="21.2" height="5.6"/>
				
					<rect x="165.4" y="94.4" transform="matrix(0.7071 -0.7071 0.7071 0.7071 -22.6845 155.1619)" class="st4" width="21.2" height="21.2"/>
				<path class="st4" d="M166.7,88.2c-3-3-3.8-7.2-1.8-9.3l-15,15c2.1-2.1,6.2-1.3,9.3,1.8c3,3,3.8,7.2,1.8,9.3l15-15
					C173.9,92,169.8,91.3,166.7,88.2z"/>
				<path class="st4" d="M191,105l-15,15c11.5-11.5,18.3,18.3,18.3,18.3s0,0,4.9-1.6C202.9,116.9,191,105,191,105z"/>
				<g>
					<polygon class="st2" points="164.7,105 176,116.2 187.2,105 					"/>
					<polygon class="st1" points="176,93.7 164.7,105 187.2,105 					"/>
				</g>
				<g>
					<path class="st1" d="M133.6,147.3c-4.1-4.1-10.9-4.1-15,0l-31.5,31.5c-4.1,4.1-4.1,10.9,0,15c4.1,4.1,10.9,4.1,15,0l31.5-31.5
						C137.8,158.1,137.8,151.4,133.6,147.3z"/>
					<g>
						<g>
							<g>
								
									<rect x="93.9" y="175.1" transform="matrix(0.7071 -0.7071 0.7071 0.7071 -103.429 121.7342)" class="st5" width="2.6" height="21.2"/>
							</g>
						</g>
						<g>
							<g>
								
									<rect x="97.6" y="171.4" transform="matrix(0.7071 -0.7071 0.7071 0.7071 -99.6768 123.2736)" class="st5" width="2.6" height="21.2"/>
							</g>
						</g>
						<g>
							<g>
								
									<rect x="101.4" y="167.6" transform="matrix(0.7071 -0.7071 0.7071 0.7071 -95.9311 124.8346)" class="st5" width="2.6" height="21.2"/>
							</g>
						</g>
						<g>
							<g>
								
									<rect x="105.1" y="163.9" transform="matrix(0.7071 -0.7071 0.7071 0.7071 -92.184 126.3917)" class="st5" width="2.6" height="21.2"/>
							</g>
						</g>
						<g>
							<g>
								
									<rect x="108.9" y="160.1" transform="matrix(0.7071 -0.7071 0.7071 0.7071 -88.4329 127.9311)" class="st5" width="2.6" height="21.2"/>
							</g>
						</g>
						<g>
							<g>
								
									<rect x="112.6" y="156.4" transform="matrix(0.7071 -0.7071 0.7071 0.7071 -84.6865 129.4921)" class="st5" width="2.6" height="21.2"/>
							</g>
						</g>
						<g>
							<g>
								
									<rect x="116.4" y="152.6" transform="matrix(0.7071 -0.7071 0.7071 0.7071 -80.939 131.0492)" class="st5" width="2.6" height="21.2"/>
							</g>
						</g>
						<g>
							<g>
								
									<rect x="120.1" y="148.9" transform="matrix(0.7071 -0.7071 0.7071 0.7071 -77.1886 132.5844)" class="st5" width="2.7" height="21.2"/>
							</g>
						</g>
						<g>
							<g>
								
									<rect x="123.9" y="145.1" transform="matrix(0.7071 -0.7071 0.7071 0.7071 -73.4409 134.1408)" class="st5" width="2.7" height="21.2"/>
							</g>
						</g>
					</g>
				</g>
			</g>
		</g>
	</g>
	<g>
		<path class="st6" d="M122.3,109.1l20.2,20.2l9.5-9.3l-34.2-34.2C124.1,92.1,125.6,101.3,122.3,109.1z"/>
		<path class="st6" d="M183.5,97.5L161,75l4,4c-2.1,2.1-1.3,6.2,1.8,9.3c3,3,7.2,3.8,9.3,1.8L183.5,97.5l7.5,7.5
			c0,0,11.9,11.9,8.2,31.6c-4.9,1.6-4.9,1.6-4.9,1.6s-6.8-29.7-18.3-18.3l-3.1-3.1L161,129l-9.3,9.5l19.8,19.8
			c7.7-3.3,17-1.8,23.3,4.5c5.5,5.5,7.4,13.4,5.5,20.5l-13-13l-15,15l13,13c-7.1,1.9-14.9,0.1-20.5-5.5c-6.3-6.3-7.8-15.6-4.5-23.3
			l-19.7-19.7l-3.9,4c0.3,3-0.7,6.2-3.1,8.5v0l-1.9,1.8l-1.9,1.8h0l-1.9,2h0l-1.9,1.9v0l-1.9,1.9v0l-5.6,5.6l0,0l-1.9,1.9v0
			l-1.9,1.9v0l-1.9,1.9v0l-1.9,1.9l-1.9,1.9l-1.9,1.9h0l-1.9,1.9l-1.9,1.9l-1.9,1.9l0,0c-4.2,3.8-10.6,3.7-14.6-0.4l80.9,80.9
			c34.6-6.8,64.6-26.5,84.7-53.9c7.8-10.7,14.2-22.6,18.7-35.3L183.5,97.5z"/>
	</g>
</g>
</svg>
