<?xml version="1.0" encoding="utf-8"?>
<!-- Generator: Adobe Illustrator 19.2.1, SVG Export Plug-In . SVG Version: 6.00 Build 0)  -->
<svg version="1.1" id="Lager_1" xmlns="http://www.w3.org/2000/svg" xmlns:xlink="http://www.w3.org/1999/xlink" x="0px" y="0px"
	 viewBox="0 0 101.4 87.8" style="enable-background:new 0 0 101.4 87.8;" xml:space="preserve">
<g>
	<g>
		<g>
			<g>
				<g>
					<path class="st0" d="M29.9,32.3l32.4,32.4c-2.2,5.1-1.2,11.2,3,15.3c3.7,3.7,8.8,4.9,13.5,3.6l-8.6-8.6l9.9-9.9l8.6,8.6
						c1.2-4.7,0-9.8-3.6-13.5c-4.1-4.1-10.2-5.1-15.3-3L37.3,24.9c2.2-5.1,1.2-11.2-3-15.3C30.7,5.9,25.5,4.7,20.8,6l8.6,8.6
						l-9.9,9.9l-8.6-8.6c-1.2,4.7,0,9.8,3.6,13.5C18.7,33.5,24.8,34.5,29.9,32.3z"/>
				</g>
			</g>
			<g>
				<g>
					<polygon class="st1" points="72,17.2 30.8,57.6 34.1,60.8 74.8,20.1 					"/>
					<polygon class="st1" points="77.6,22.9 74.8,20.1 34.1,60.8 37.3,64 					"/>
				</g>
				<rect x="52.2" y="6.9" transform="matrix(0.7072 -0.707 0.707 0.7072 11.1576 44.3625)" class="st0" width="14" height="3.7"/>
				<rect x="65.7" y="15.2" transform="matrix(0.7071 -0.7071 0.7071 0.7071 5.5646 57.8689)" class="st1" width="14" height="14"/>
				<path class="st1" d="M66.5,11.2c-2-2-2.5-4.7-1.2-6.1L55.5,15c1.4-1.4,4.1-0.8,6.1,1.2c2,2,2.5,4.7,1.2,6.1l9.9-9.9
					C71.3,13.7,68.5,13.2,66.5,11.2z"/>
				<path class="st1" d="M82.5,22.2l-9.9,9.9c7.6-7.6,12,12,12,12s0,0,3.2-1.1C90.4,30.1,82.5,22.2,82.5,22.2z"/>
				<g>
					<polygon class="st0" points="65.2,22.2 72.6,29.6 80,22.2 					"/>
					<polygon class="st0" points="72.6,14.8 65.2,22.2 80,22.2 					"/>
				</g>
				<g>
					<path class="st0" d="M44.8,50.1c-2.7-2.7-7.2-2.7-9.9,0L14.1,70.8c-2.7,2.7-2.7,7.1,0,9.9c2.7,2.7,7.2,2.7,9.9,0L44.8,60
						C47.5,57.3,47.5,52.8,44.8,50.1z"/>
				</g>
			</g>
		</g>
	</g>
</g>
</svg>
