<?xml version="1.0" encoding="utf-8"?>
<!-- Generator: Adobe Illustrator 19.2.1, SVG Export Plug-In . SVG Version: 6.00 Build 0)  -->
<svg version="1.1" id="Lager_1" xmlns="http://www.w3.org/2000/svg" xmlns:xlink="http://www.w3.org/1999/xlink" x="0px" y="0px"
	 viewBox="0 0 281.6 279.3" style="enable-background:new 0 0 281.6 279.3;" xml:space="preserve">
<g>
	<g>
		<g>
			<circle class="st0" cx="141.3" cy="139.6" r="137.9"/>
		</g>
	</g>
	<g>
		<g>
			<g>
				<g>
					<rect x="141" y="75.7" class="st1" width="2.7" height="79.6"/>
				</g>
			</g>
		</g>
		<g>
			<g>
				<g>
					<path class="st2" d="M158.2,150.1c0,2.9-2.4,5.3-5.3,5.3h-21.2c-2.9,0-5.3-2.4-5.3-5.3v-21.2c0-2.9,2.4-5.3,5.3-5.3h21.2
						c2.9,0,5.3,2.4,5.3,5.3V150.1z"/>
				</g>
			</g>
		</g>
		<g>
			<g>
				<g>
					<rect x="126.4" y="132.5" class="st3" width="31.8" height="7"/>
				</g>
			</g>
		</g>
		<g>
			<g>
				<g>
					<g>
						<g>
							<rect x="77.7" y="75.7" class="st1" width="103.6" height="111.4"/>
						</g>
					</g>
				</g>
				<g>
					<g>
						<g>
							<circle class="st1" cx="93.6" cy="187.1" r="15.9"/>
						</g>
					</g>
				</g>
				<g>
					<g>
						<g>
							<circle class="st1" cx="165.4" cy="187.1" r="15.9"/>
						</g>
					</g>
				</g>
				<g>
					<g>
						<g>
							<rect x="93.6" y="155.3" class="st1" width="71.8" height="47.7"/>
						</g>
					</g>
				</g>
				<g>
					<g>
						<g>
							<path class="st1" d="M181.3,107.9c16.1,0,29.2,13.1,29.2,29.2s-13.1,29.2-29.2,29.2s-29.2-13.1-29.2-29.2
								S165.2,107.9,181.3,107.9L181.3,107.9z M181.3,97.3c-22,0-39.8,17.8-39.8,39.8c0,22,17.8,39.8,39.8,39.8
								c22,0,39.8-17.8,39.8-39.8C221.2,115.2,203.3,97.3,181.3,97.3L181.3,97.3z"/>
						</g>
					</g>
				</g>
			</g>
			<g>
				<g>
					<g>
						<rect x="141" y="75.7" class="st4" width="2.7" height="79.6"/>
					</g>
				</g>
			</g>
			<g>
				<g>
					<g>
						<path class="st2" d="M158.2,150.1c0,2.9-2.4,5.3-5.3,5.3h-21.2c-2.9,0-5.3-2.4-5.3-5.3v-21.2c0-2.9,2.4-5.3,5.3-5.3h21.2
							c2.9,0,5.3,2.4,5.3,5.3V150.1z"/>
					</g>
				</g>
			</g>
			<g>
				<g>
					<g>
						<rect x="126.4" y="132.5" class="st5" width="31.8" height="7"/>
					</g>
				</g>
			</g>
		</g>
	</g>
	<g>
		<g>
			<g>
				<path class="st6" d="M210.6,137.2c0-16.1-13.1-29.2-29.2-29.2v58.5C197.5,166.4,210.6,153.3,210.6,137.2z"/>
			</g>
			<g>
				<path class="st6" d="M193.1,87.5l-11.8-11.8v21.7c0.6,0,1.3,0,1.9,0c21.1,1,38,18.4,38,39.8c0,22-17.8,39.8-39.8,39.8v10h0
					c0,0,0,0,0,0.1c0,8.8-7.1,15.9-15.9,15.9H93.6c-4.4,0-8.3-1.8-11.2-4.6l77.9,77.9c57.1-7.8,103-50.6,115.5-106.1L193.1,87.5z"/>
			</g>
		</g>
		<g>
			<polygon class="st6" points="82.3,198.3 82.3,198.3 82.3,198.3 			"/>
		</g>
		<g>
			<path class="st6" d="M82.3,198.3C82.3,198.3,82.4,198.3,82.3,198.3L82.3,198.3L82.3,198.3z"/>
		</g>
	</g>
</g>
</svg>
