<?xml version="1.0" encoding="utf-8"?>
<!-- Generator: Adobe Illustrator 19.2.1, SVG Export Plug-In . SVG Version: 6.00 Build 0)  -->
<svg version="1.1" id="Lager_1" xmlns="http://www.w3.org/2000/svg" xmlns:xlink="http://www.w3.org/1999/xlink" x="0px" y="0px"
	 viewBox="0 0 101.4 87.8" style="enable-background:new 0 0 101.4 87.8;" xml:space="preserve">
<g>
	<g>
		<g>
			<g>
				<rect x="44.5" y="2.6" class="st0" width="1.7" height="51"/>
			</g>
		</g>
	</g>
	<g>
		<g>
			<g>
				<path class="st1" d="M55.5,50.2c0,1.9-1.5,3.4-3.4,3.4H38.5c-1.9,0-3.4-1.5-3.4-3.4V36.7c0-1.9,1.5-3.4,3.4-3.4h13.6
					c1.9,0,3.4,1.5,3.4,3.4V50.2z"/>
			</g>
		</g>
	</g>
	<g>
		<g>
			<g>
				<rect x="35.1" y="39" class="st2" width="20.4" height="4.5"/>
			</g>
		</g>
	</g>
	<g>
		<g>
			<g>
				<g>
					<g>
						<rect x="3.9" y="2.6" class="st0" width="66.3" height="71.3"/>
					</g>
				</g>
			</g>
			<g>
				<g>
					<g>
						<circle class="st0" cx="14.1" cy="73.9" r="10.2"/>
					</g>
				</g>
			</g>
			<g>
				<g>
					<g>
						<circle class="st0" cx="60.1" cy="73.9" r="10.2"/>
					</g>
				</g>
			</g>
			<g>
				<g>
					<g>
						<rect x="14.1" y="53.6" class="st0" width="46" height="30.5"/>
					</g>
				</g>
			</g>
			<g>
				<g>
					<g>
						<path class="st0" d="M70.3,23.2c10.3,0,18.7,8.4,18.7,18.7s-8.4,18.7-18.7,18.7s-18.7-8.4-18.7-18.7S60,23.2,70.3,23.2
							L70.3,23.2z M70.3,16.4c-14.1,0-25.5,11.4-25.5,25.5c0,14.1,11.4,25.5,25.5,25.5c14.1,0,25.5-11.4,25.5-25.5
							C95.8,27.9,84.4,16.4,70.3,16.4L70.3,16.4z"/>
					</g>
				</g>
			</g>
		</g>
		<g>
			<g>
				<g>
					<rect x="44.5" y="2.6" class="st3" width="1.7" height="51"/>
				</g>
			</g>
		</g>
		<g>
			<g>
				<g>
					<path class="st3" d="M55.5,50.2c0,1.9-1.5,3.4-3.4,3.4H38.5c-1.9,0-3.4-1.5-3.4-3.4V36.7c0-1.9,1.5-3.4,3.4-3.4h13.6
						c1.9,0,3.4,1.5,3.4,3.4V50.2z"/>
				</g>
			</g>
		</g>
	</g>
</g>
</svg>
