<?xml version="1.0" encoding="utf-8"?>
<!-- Generator: Adobe Illustrator 19.2.1, SVG Export Plug-In . SVG Version: 6.00 Build 0)  -->
<svg version="1.1" id="Lager_1" xmlns="http://www.w3.org/2000/svg" xmlns:xlink="http://www.w3.org/1999/xlink" x="0px" y="0px"
	 viewBox="0 0 86.2 70.3" style="enable-background:new 0 0 86.2 70.3;" xml:space="preserve">
<style type="text/css">
	.st0{fill:#FFFFFF;}
</style>
<path class="st0" d="M54.6,33.7c-1.8,1.8-3.9,2.7-6.3,2.7H24.9L12.8,46.5v-10l-2.9-0.1c-2.5,0-4.6-0.9-6.4-2.7
	c-0.3-0.3-0.6-0.6-0.9-1c-1.2-1.6-1.8-3.5-1.8-5.6v-17c0-2,0.6-3.9,1.8-5.6l0.8-1h0.1c1.8-1.8,3.9-2.7,6.4-2.7h38.3
	c2.4,0,4.5,0.9,6.3,2.7c1.8,1.9,2.7,4,2.7,6.5v17.1C57.2,29.7,56.3,31.9,54.6,33.7"/>
<path class="st0" d="M83.6,27.3l-0.8-1h-0.1c-1.8-1.8-3.9-2.7-6.4-2.7H59.8v3.5c0,3.3-1.2,6.1-3.4,8.4c-2.3,2.3-5,3.4-8.2,3.4H29v11
	c0,2.6,0.9,4.7,2.7,6.5c1.8,1.8,3.9,2.7,6.3,2.7h23.3l12.1,10.1v-10l2.9-0.1c2.5,0,4.6-0.9,6.4-2.7c0.3-0.3,0.6-0.6,0.9-1
	c1.2-1.6,1.8-3.5,1.8-5.6V32.9C85.5,30.8,84.9,29,83.6,27.3"/>
</svg>
