<?xml version="1.0" encoding="utf-8"?>
<!-- Generator: Adobe Illustrator 19.2.1, SVG Export Plug-In . SVG Version: 6.00 Build 0)  -->
<svg version="1.1" id="Lager_1" xmlns="http://www.w3.org/2000/svg" xmlns:xlink="http://www.w3.org/1999/xlink" x="0px" y="0px"
	 viewBox="0 0 145.2 45.1" style="enable-background:new 0 0 145.2 45.1;" xml:space="preserve">
<style type="text/css">
	.st0{fill:#FFFFFF;}
</style>
<path class="st0" d="M0.9,6c0-2.6,2-4.6,4.6-4.6h12.5c10,0,16.1,5.9,16.1,14.5V16c0,9.7-7.6,14.8-17,14.8h-7v8.3
	c0,2.6-2,4.6-4.6,4.6c-2.6,0-4.6-2-4.6-4.6V6z M17.5,22.6c4.6,0,7.3-2.8,7.3-6.4v-0.1c0-4.1-2.9-6.4-7.5-6.4h-7.1v12.8H17.5z"/>
<path class="st0" d="M40.4,38.8V6c0-2.6,2-4.6,4.6-4.6h23.3c2.3,0,4.1,1.9,4.1,4.1s-1.9,4.1-4.1,4.1H49.6v8.5h16
	c2.3,0,4.1,1.9,4.1,4.1s-1.9,4.1-4.1,4.1h-16v8.8h19c2.3,0,4.1,1.9,4.1,4.1c0,2.3-1.9,4.1-4.1,4.1H45C42.4,43.4,40.4,41.3,40.4,38.8
	z"/>
<path class="st0" d="M78.4,40.3c-1-0.7-1.7-2.1-1.7-3.5c0-2.5,1.9-4.4,4.4-4.4c1.1,0,1.9,0.3,2.8,1c1.9,1.4,3.5,2.1,5.6,2.1
	c3.6,0,5.8-2.1,5.8-7v-9.8c0-2.6,2-4.6,4.6-4.6s4.6,2,4.6,4.6v10.2c0,5-1.4,8.7-4,11.2c-2.6,2.6-6.4,3.9-10.9,3.9
	C84.7,44,81.1,42.4,78.4,40.3z"/>
<path class="st0" d="M113.2,5.6c0-2.6,2-4.6,4.6-4.6c2.6,0,4.6,2,4.6,4.6V35h17.1c2.3,0,4.2,1.9,4.2,4.2c0,2.3-1.9,4.2-4.2,4.2
	h-21.7c-2.6,0-4.6-2-4.6-4.6V5.6z"/>
<g>
	<path class="st0" d="M99.9,0c3,0,5.2,2.2,5.2,5.1v0.1c0,2.9-2.2,5.1-5.2,5.1c-3,0-5.2-2.2-5.2-5.1V5.1C94.7,2.2,96.9,0,99.9,0z"/>
</g>
</svg>
