<svg xmlns="http://www.w3.org/2000/svg" xmlns:xlink="http://www.w3.org/1999/xlink" version="1.1" viewBox="0 0 96 96" x="0px" y="0px"><path d="M8.548 56.772c-0.436 0-0.876-0.14-1.236-0.424-0.676-0.532-0.936-1.432-0.644-2.252l3.924-10.868h-8.592c-1.104 0-2-0.9-2-2v-40c0-1.1 0.896-2 2-2h64c1.1 0 2 0.9 2 2v40c0 1.1-0.9 2-2 2h-36.332l-20.016 13.224c-0.336 0.216-0.72 0.32-1.104 0.32zM4 39.228h9.44c0.652 0 1.26 0.32 1.636 0.852s0.464 1.224 0.244 1.828l-2.844 7.888 15.484-10.232c0.328-0.224 0.708-0.336 1.1-0.336h34.94v-36h-60v36z"></path><path d="M87.452 96.772c-0.384 0-0.768-0.104-1.1-0.328l-20.016-13.228h-32.336c-1.104 0-2-0.9-2-2v-38c0-1.1 0.896-2 2-2s2 0.9 2 2v36h30.936c0.392 0 0.772 0.108 1.096 0.332l15.488 10.232-2.844-7.884c-0.22-0.608-0.132-1.296 0.244-1.828 0.38-0.536 0.984-0.852 1.64-0.852h9.44v-40h-24c-1.1 0-2-0.9-2-2s0.9-2 2-2h26c1.1 0 2 0.9 2 2v44c0 1.1-0.9 2-2 2h-8.592l3.924 10.872c0.292 0.812 0.032 1.724-0.644 2.252-0.36 0.292-0.796 0.432-1.236 0.432z"></path><path d="M56 15.228h-44c-1.104 0-2-0.896-2-2 0-1.096 0.896-2 2-2h44c1.1 0 2 0.904 2 2 0 1.104-0.9 2-2 2z"></path><path d="M56 23.228h-44c-1.104 0-2-0.896-2-2 0-1.096 0.896-2 2-2h44c1.1 0 2 0.904 2 2 0 1.104-0.9 2-2 2z"></path><path d="M36 31.228h-24c-1.104 0-2-0.896-2-2 0-1.096 0.896-2 2-2h24c1.104 0 2 0.904 2 2 0 1.104-0.896 2-2 2z"></path><path d="M84 55.228h-40c-1.104 0-2-0.896-2-2 0-1.096 0.896-2 2-2h40c1.1 0 2 0.904 2 2 0 1.104-0.9 2-2 2z"></path><path d="M84 63.228h-40c-1.104 0-2-0.896-2-2 0-1.096 0.896-2 2-2h40c1.1 0 2 0.904 2 2 0 1.104-0.9 2-2 2z"></path><path d="M68 71.228h-24c-1.104 0-2-0.896-2-2 0-1.096 0.896-2 2-2h24c1.1 0 2 0.904 2 2 0 1.104-0.9 2-2 2z"></path></svg>