<?xml version="1.0" encoding="utf-8"?>
<svg version="1.1" xmlns="http://www.w3.org/2000/svg" xmlns:xlink="http://www.w3.org/1999/xlink" x="0px" y="0px"
	 viewBox="0 0 451.6 117.1" xml:space="preserve">
<style type="text/css">
	.st0{fill:#FFFFFF;}
	.st1{clip-path:url(#SVGID_2_);fill:#FFFFFF;}
</style>
<polygon class="st0" points="2.2,3.4 2.2,28.3 24,28.3 24,114.3 52.4,114.3 52.4,28.3 74.1,28.3 74.1,3.4 "/>
<g>
	<defs>
		<rect id="SVGID_1_" x="2.2" y="1.3" width="448.1" height="115.2"/>
	</defs>
	<clipPath id="SVGID_2_">
		<use xlink:href="#SVGID_1_"  style="overflow:visible;"/>
	</clipPath>
	<path class="st1" d="M76,36.6c1.5-3.6,3.7-7.5,6.6-11.6c2.9-4.1,6.6-7.9,11-11.5c4.4-3.5,9.7-6.5,15.7-8.8c6-2.3,13-3.4,20.8-3.4
		c8.5,0,16.3,1.5,23.5,4.6c7.2,3.1,13.4,7.3,18.6,12.5c5.2,5.2,9.2,11.4,12.1,18.4c2.9,7,4.3,14.3,4.3,22c0,7.7-1.5,15-4.3,22
		c-2.9,7-6.9,13.1-12.1,18.4c-5.2,5.2-11.4,9.4-18.6,12.5c-7.2,3.1-15.1,4.6-23.7,4.6c-8.7,0-16.6-1.6-23.8-4.8
		c-7.2-3.2-13.3-7.4-18.4-12.7c-5.1-5.2-9-11.2-11.8-18c-2.8-6.7-4.2-13.7-4.2-20.8c0-3.7,0.3-7.5,0.9-11.5
		C73.1,44.7,74.3,40.7,76,36.6 M100,58.6c0,4.3,0.7,8.4,2.1,12.4c1.4,3.9,3.4,7.4,6.1,10.5c2.6,3.1,5.8,5.5,9.6,7.3
		c3.8,1.9,8,2.8,12.8,2.8c5,0,9.4-1,13.1-3.1c3.7-2,6.8-4.7,9.3-7.9c2.4-3.2,4.3-6.7,5.5-10.5c1.3-3.8,1.9-7.5,1.9-11.1
		c0-3.6-0.6-7.3-1.9-11.2c-1.2-3.8-3.1-7.4-5.5-10.6c-2.5-3.2-5.6-5.9-9.4-7.9c-3.8-2.1-8.2-3.1-13.3-3.1c-4.9,0-9.2,1-13,2.8
		c-3.8,1.9-7,4.4-9.5,7.5c-2.5,3.1-4.5,6.6-5.8,10.4C100.6,50.8,100,54.7,100,58.6"/>
	<path class="st1" d="M231.3,3.4H268c3.1,0,6.7,0.1,10.9,0.3c4.1,0.2,8.4,1,12.9,2.3c4.4,1.3,8.9,3.3,13.3,6.1
		c4.4,2.8,8.4,6.8,12,12c3.8,5.3,6.4,10.8,7.9,16.6c1.5,5.8,2.2,11.7,2.2,17.8c0,7.6-1,14.8-3,21.5c-2,6.7-5.2,12.7-9.7,17.8
		c-4.5,5.1-10.4,9.1-17.7,12.1c-7.3,2.9-16.2,4.4-26.7,4.4h-38.8V3.4z M259.6,89.5h12.1c5.3,0,9.7-0.8,13.2-2.6
		c3.5-1.7,6.3-3.9,8.3-6.7c2-2.8,3.5-6,4.3-9.7c0.8-3.7,1.3-7.5,1.3-11.4c0-3.2-0.4-6.6-1.2-10.3c-0.8-3.6-2.2-7.1-4.2-10.3
		c-0.8-1.2-1.8-2.4-3-3.7c-1.2-1.2-2.6-2.3-4.3-3.3c-1.7-1-3.7-1.7-6.1-2.3c-2.3-0.6-5.1-0.9-8.2-0.9h-12.3V89.5z"/>
	<path class="st1" d="M337.6,36.6c1.5-3.6,3.7-7.5,6.6-11.6c2.9-4.1,6.6-7.9,11-11.5c4.4-3.5,9.7-6.5,15.7-8.8
		c6-2.3,13-3.4,20.8-3.4c8.5,0,16.3,1.5,23.5,4.6c7.2,3.1,13.4,7.3,18.6,12.5c5.2,5.2,9.2,11.4,12.1,18.4c2.9,7,4.3,14.3,4.3,22
		c0,7.7-1.5,15-4.3,22c-2.9,7-6.9,13.1-12.1,18.4c-5.2,5.2-11.4,9.4-18.6,12.5c-7.2,3.1-15.1,4.6-23.7,4.6c-8.7,0-16.6-1.6-23.8-4.8
		c-7.2-3.2-13.3-7.4-18.4-12.7c-5.1-5.2-9-11.2-11.8-18c-2.8-6.7-4.2-13.7-4.2-20.8c0-3.7,0.3-7.5,0.9-11.5
		C334.7,44.7,335.8,40.7,337.6,36.6 M361.5,58.6c0,4.3,0.7,8.4,2.1,12.4c1.4,3.9,3.4,7.4,6.1,10.5c2.6,3.1,5.9,5.5,9.6,7.3
		c3.8,1.9,8,2.8,12.8,2.8c5,0,9.4-1,13.1-3.1c3.7-2,6.8-4.7,9.3-7.9c2.4-3.2,4.3-6.7,5.5-10.5c1.2-3.8,1.9-7.5,1.9-11.1
		c0-3.6-0.6-7.3-1.9-11.2c-1.3-3.8-3.1-7.4-5.5-10.6c-2.5-3.2-5.6-5.9-9.4-7.9c-3.8-2.1-8.2-3.1-13.3-3.1c-4.9,0-9.2,1-13,2.8
		c-3.8,1.9-7,4.4-9.5,7.5c-2.5,3.1-4.5,6.6-5.8,10.4C362.2,50.8,361.5,54.7,361.5,58.6"/>
	<path class="st1" d="M222.8,61c0,6.9-5.6,12.4-12.4,12.4h-1.1c-6.9,0-12.4-5.6-12.4-12.4V60c0-6.9,5.6-12.4,12.4-12.4h1.1
		c6.9,0,12.4,5.6,12.4,12.4V61z"/>
</g>
</svg>
