<?xml version="1.0" encoding="utf-8"?>
<!-- Generator: Adobe Illustrator 19.2.1, SVG Export Plug-In . SVG Version: 6.00 Build 0)  -->
<svg version="1.1" id="Lager_1" xmlns="http://www.w3.org/2000/svg" xmlns:xlink="http://www.w3.org/1999/xlink" x="0px" y="0px"
	 viewBox="0 0 281.6 281.4" style="enable-background:new 0 0 281.6 281.4;" xml:space="preserve">
<g>
	<g>
		<g>
			<circle class="st0" cx="140.7" cy="140.9" r="139.5"/>
		</g>
	</g>
	<g>
		<path class="st1" d="M222.9,98.3C222.9,98.3,222.9,98.3,222.9,98.3C222.9,98.3,222.9,98.3,222.9,98.3c-1.5-1.5-3.5-2.4-5.7-2.4
			h-5.3l-2.7-2.7h-6.9h-2.7h-7.8l-8.3-8.3l-14.2-14.2l0,0l0,0c-2.2-2.2-5.2-3.5-8.5-3.5h-38.1h-1.9c-6.7,0-12.1,5.4-12.1,12.1v1.9
			V96h-9.4l-2.7-2.7H81.7h-2.7h-6.9V96h-7.9c-4.4,0-8,3.6-8,8v29.5v50.2v20.4c0,2.2,0.9,4.2,2.3,5.6c0,0,0,0,0,0c0,0,0,0,0,0
			l16.9,16.9l9.4,9.4l43.6,43.6c4,0.3,8,0.5,12.1,0.5c39.4,0,74.9-16.3,100.3-42.5c16.2-16.8,28.3-37.6,34.5-60.8
			c1.3-4.7,2.3-9.5,3-14.3c0.4-2.5,0.7-5.1,1-7.7L222.9,98.3z"/>
	</g>
	<g>
		<g>
			<g>
				<rect x="72.2" y="93.3" class="st2" width="24.3" height="4.7"/>
			</g>
		</g>
		<g>
			<g>
				<rect x="185" y="93.3" class="st2" width="24.1" height="4.7"/>
			</g>
		</g>
		<g>
			<g>
				<rect x="79.1" y="93.3" class="st3" width="2.7" height="4.7"/>
			</g>
		</g>
		<g>
			<g>
				<rect x="199.6" y="93.3" class="st3" width="2.7" height="4.7"/>
			</g>
		</g>
		<g>
			<g>
				<g>
					<path class="st4" d="M160.7,124.8h-40.1c-6.7,0-12.1-5.4-12.1-12.1V79.3c0-6.7,5.4-12.1,12.1-12.1h40.1
						c6.7,0,12.1,5.4,12.1,12.1v33.4C172.8,119.3,167.4,124.8,160.7,124.8z M120.6,75.2c-2.2,0-4,1.8-4,4v33.4c0,2.2,1.8,4,4,4h40.1
						c2.2,0,4-1.8,4-4V79.3c0-2.2-1.8-4-4-4H120.6z"/>
				</g>
			</g>
		</g>
		<g>
			<g>
				<path class="st3" d="M225.2,204.1c0,4.4-3.6,8-8,8H64.3c-4.4,0-8-3.6-8-8V104c0-4.4,3.6-8,8-8h152.9c4.4,0,8,3.6,8,8V204.1z"/>
			</g>
		</g>
		<g>
			<g>
				<rect x="72.4" y="96" class="st4" width="24.1" height="116.2"/>
			</g>
		</g>
		<g>
			<g>
				<rect x="185" y="96" class="st4" width="24.1" height="116.2"/>
			</g>
		</g>
	</g>
</g>
</svg>
