<?xml version="1.0" encoding="utf-8"?>
<!-- Generator: Adobe Illustrator 19.2.1, SVG Export Plug-In . SVG Version: 6.00 Build 0)  -->
<svg version="1.1" id="Lager_1" xmlns="http://www.w3.org/2000/svg" xmlns:xlink="http://www.w3.org/1999/xlink" x="0px" y="0px"
	 viewBox="0 0 101.4 87.8" style="enable-background:new 0 0 101.4 87.8;" xml:space="preserve">
<g>
	<g>
		<g>
			<g>
				<rect x="11.7" y="17.2" class="st0" width="13.7" height="2.7"/>
			</g>
		</g>
		<g>
			<g>
				<rect x="75.1" y="17.2" class="st0" width="13.6" height="2.7"/>
			</g>
		</g>
		<g>
			<g>
				<g>
					<path class="st1" d="M61.5,34.9H38.9c-3.7,0-6.8-3-6.8-6.8V9.4c0-3.7,3-6.8,6.8-6.8h22.5c3.7,0,6.8,3,6.8,6.8v18.8
						C68.2,31.9,65.2,34.9,61.5,34.9z M38.9,7.1c-1.2,0-2.3,1-2.3,2.3v18.8c0,1.2,1,2.3,2.3,2.3h22.5c1.2,0,2.3-1,2.3-2.3V9.4
						c0-1.2-1-2.3-2.3-2.3H38.9z"/>
				</g>
			</g>
		</g>
		<g>
			<g>
				<path class="st1" d="M97.7,79.5c0,2.5-2,4.5-4.5,4.5H7.3c-2.5,0-4.5-2-4.5-4.5V23.3c0-2.5,2-4.5,4.5-4.5h85.9
					c2.5,0,4.5,2,4.5,4.5V79.5z"/>
			</g>
		</g>
		<g>
			<g>
				<rect x="11.8" y="18.8" class="st0" width="13.6" height="65.3"/>
			</g>
		</g>
		<g>
			<g>
				<rect x="75.1" y="18.8" class="st0" width="13.6" height="65.3"/>
			</g>
		</g>
	</g>
</g>
</svg>
