<?xml version="1.0" encoding="utf-8"?>
<!-- Generator: Adobe Illustrator 19.2.1, SVG Export Plug-In . SVG Version: 6.00 Build 0)  -->
<svg version="1.1" id="Lager_1" xmlns="http://www.w3.org/2000/svg" xmlns:xlink="http://www.w3.org/1999/xlink" x="0px" y="0px"
	 viewBox="0 0 83.9 74.9" style="enable-background:new 0 0 83.9 74.9;" xml:space="preserve">
<style type="text/css">
	.st0{fill:#FFFFFF;}
</style>
<g>
	<g>
		<path class="st0" d="M83.4,37.9v32c0,2.1-1.7,3.9-3.9,3.9H5.3c-2.1,0-3.9-1.7-3.9-3.9v-32c1.4,0.3,2.8,0.7,4.2,1
			C16,41.2,27,42.4,38.4,42.7v3.6c0,1,0.8,1.7,1.7,1.7h4.6c1,0,1.7-0.8,1.7-1.7v-3.6c11.3-0.2,22.4-1.5,32.8-3.8
			C80.7,38.6,82.1,38.3,83.4,37.9z"/>
		<path class="st0" d="M83.4,22.9v11.4c-11.4,2.9-23.9,4.6-37,4.8v-2c0-1-0.8-1.7-1.7-1.7h-4.6c-1,0-1.7,0.8-1.7,1.7v2
			c-13-0.3-25.6-1.9-37-4.8V22.9c0-2.1,1.7-3.9,3.9-3.9h74.3C81.7,19.1,83.4,20.8,83.4,22.9z"/>
	</g>
	<path class="st0" d="M33.2,15.9c0-0.1,0-0.1,0-0.2v-5.2c0-2.3,1.9-4.2,4.2-4.2h10.1c2.3,0,4.2,1.9,4.2,4.2v5.2c0,0.1,0,0.1,0,0.2
		h5.7V8.3c0-3.8-3.1-6.8-6.8-6.8H34.3c-3.8,0-6.8,3.1-6.8,6.8v7.6H33.2z"/>
</g>
</svg>
